/* XPM */
static char *fastforward_xpm[] = {
/* columns rows colors chars-per-pixel */
"32 32 170 2",
"   c gray3",
".  c #0C0C0C",
"X  c gray7",
"o  c gray8",
"O  c gray9",
"+  c #191919",
"@  c #1E1E1E",
"#  c #202020",
"$  c #232323",
"%  c gray15",
"&  c #272727",
"*  c #2A2A2A",
"=  c gray17",
"-  c #2D2D2D",
";  c #2F2F2F",
":  c gray19",
">  c #323232",
",  c gray20",
"<  c #343434",
"1  c #353535",
"2  c gray21",
"3  c gray22",
"4  c #393939",
"5  c #3C3C3C",
"6  c gray24",
"7  c #3E3E3E",
"8  c #3F3F3F",
"9  c gray25",
"0  c #414141",
"q  c gray26",
"w  c #434343",
"e  c #444444",
"r  c gray27",
"t  c #464646",
"y  c gray28",
"u  c #484848",
"i  c #494949",
"p  c gray29",
"a  c #4B4B4B",
"s  c #4C4C4C",
"d  c gray30",
"f  c #4E4E4E",
"g  c gray31",
"h  c #505050",
"j  c #515151",
"k  c gray32",
"l  c #535353",
"z  c gray33",
"x  c #555555",
"c  c #565656",
"v  c gray34",
"b  c #585858",
"n  c gray35",
"m  c #5A5A5A",
"M  c #5B5B5B",
"N  c gray36",
"B  c #5D5D5D",
"V  c gray37",
"C  c #5F5F5F",
"Z  c #606060",
"A  c gray38",
"S  c #626262",
"D  c gray39",
"F  c #656565",
"G  c gray40",
"H  c #676767",
"J  c #686868",
"K  c DimGray",
"L  c #6A6A6A",
"P  c #6C6C6C",
"I  c #6D6D6D",
"U  c gray43",
"Y  c #6F6F6F",
"T  c gray44",
"R  c #717171",
"E  c #727272",
"W  c gray45",
"Q  c #747474",
"!  c gray46",
"~  c #767676",
"^  c #777777",
"/  c gray47",
"(  c #797979",
")  c gray48",
"_  c #7B7B7B",
"`  c #7C7C7C",
"'  c gray49",
"]  c #7E7E7E",
"[  c #7F7F7F",
"{  c #808080",
"}  c #818181",
"|  c gray51",
" . c #848484",
".. c gray53",
"X. c gray54",
"o. c #8B8B8B",
"O. c gray57",
"+. c #929292",
"@. c #939393",
"#. c gray61",
"$. c #9D9D9D",
"%. c #A0A0A0",
"&. c gray63",
"*. c #A2A2A2",
"=. c gray64",
"-. c #A4A4A4",
";. c #A5A5A5",
":. c gray65",
">. c #A7A7A7",
",. c gray66",
"<. c #A9A9A9",
"1. c gray68",
"2. c #AEAEAE",
"3. c #AFAFAF",
"4. c gray69",
"5. c #B1B1B1",
"6. c gray72",
"7. c #B9B9B9",
"8. c gray73",
"9. c #BCBCBC",
"0. c gray75",
"q. c #C0C0C0",
"w. c #C3C3C3",
"e. c gray77",
"r. c #CBCBCB",
"t. c gray80",
"y. c #CDCDCD",
"u. c #CECECE",
"i. c #D2D2D2",
"p. c gray83",
"a. c #D5D5D5",
"s. c #D7D7D7",
"d. c #D8D8D8",
"f. c gray85",
"g. c #DADADA",
"h. c gainsboro",
"j. c #DDDDDD",
"k. c gray87",
"l. c #DFDFDF",
"z. c gray88",
"x. c #E1E1E1",
"c. c #E2E2E2",
"v. c gray89",
"b. c #E4E4E4",
"n. c gray90",
"m. c #E6E6E6",
"M. c #E7E7E7",
"N. c gray91",
"B. c #E9E9E9",
"V. c gray92",
"C. c #ECECEC",
"Z. c gray93",
"A. c #EEEEEE",
"S. c #EFEFEF",
"D. c gray94",
"F. c #F1F1F1",
"G. c gray95",
"H. c #F4F4F4",
"J. c gray96",
"K. c #F6F6F6",
"L. c gray97",
"P. c #F8F8F8",
"I. c #F9F9F9",
"U. c gray98",
"Y. c #FBFBFB",
"T. c gray99",
"R. c #FDFDFD",
"E. c #FEFEFE",
"W. c gray100",
"Q. c None",
/* pixels */
"Q.Q.Q.Q.Q.Q.Q.Q.Q.Q.Q.Q. . . . . . . . .Q.Q.Q.Q.Q.Q.Q.Q.Q.Q.Q.Q.",
"Q.Q.Q.Q.Q.Q.Q.Q.Q.} | { [ ' _ ) ) _ ' [ { | } Q.Q.Q.Q.Q.Q.Q.Q.Q.",
"Q.Q.Q.Q.Q.Q.Q.] ] ` / W P H S Z Z S H P W / ` ] ] Q.Q.Q.Q.Q.Q.Q.",
"Q.Q.Q.Q.Q.Q.` ) ~ I S P o.>.8.e.e.8.>.o.P S I ~ ) ` Q.Q.Q.Q.Q.Q.",
"Q.Q.Q.Q.Q.( ~ Y S Y ,.y.f.z.v.n.b.x.h.a.t.,.Y S Y ~ ( Q.Q.Q.Q.Q.",
"Q.Q.Q.Q.^ Q L V @.y.l.B.C.A.S.D.S.Z.V.M.c.f.r.@.V L Q ^ Q.Q.Q.Q.",
"Q.Q.Q.! E J V <.s.B.A.F.H.J.L.L.L.K.H.F.Z.M.l.i.<.V J E ! Q.Q.Q.",
"Q.Q.E R K M ,.g.C.F.J.L.U.Y.T.T.T.Y.U.P.J.D.B.x.p.,.M K R E Q.Q.",
"Q.Q.T L M O.s.Z.G.K.I.T.R.E.E.E.0.E.R.T.Y.L.G.V.x.i.O.M L T Q.Q.",
"Q.U P A K y.C.G.L.U.R.E.E.W.W.W.' 6.W.E.R.Y.P.G.B.k.r.K A P U Q.",
"Q.P G x :.c.F.K.U.R.r.E.W.W.W.W.Q J 3.W.E.E.Y.L.D.m.d.:.x G P Q.",
"Q.J C A u.A.H.I.T.E.+.w.W.W.W.W.L B x ,.W.E.R.Y.H.C.z.r.A C J Q.",
"H F b  .g.F.K.Y.R.E..._ 8.W.W.W.A k i p :.W.E.T.P.D.n.p. .b F H ",
"F A k =.f.V.L.T.E.W.' Y I 6.W.W.n u 7 8 i ,.W.R.U.G.N.f.=.k A F ",
"D V d 7.j.V.H.Y.E.W.! D S I 9.W.l 7 > 2 q j 2.E.Y.H.V.j.7.d V D ",
"S N p e.k.C.J.T.E.W.6 2 y Z / q.f 1 $ * 3 i V 5.T.J.C.k.e.p N S ",
"Z M i e.k.C.J.T.E.W.% . O < k 5.* o   + : y B 5.T.J.C.k.e.i M Z ",
"C m p 6.j.V.H.Y.E.W.- + # 4 >.W.- + X @ , i 1.E.Y.H.V.j.6.p m C ",
"V m s &.f.N.G.U.R.W.3 * ; $.W.W., $ @ & 3 =.W.R.U.G.N.f.&.s m V ",
"N m g { p.n.D.P.T.E.t 5 #.W.W.W.5 ; = > $.W.E.T.P.D.n.p.{ g m N ",
"Q.m k b r.z.C.H.Y.R.c ;.W.W.W.W.t 5 4 #.W.E.R.Y.H.C.z.r.b k m Q.",
"Q.n x y =.d.m.D.L.Y.4.E.W.W.W.W.k u &.W.E.E.Y.L.D.m.d.=.y x n Q.",
"Q.b c f B r.k.B.G.P.Y.R.E.W.W.W.B <.W.E.R.Y.P.G.B.k.r.B f c b Q.",
"Q.Q.v l t o.i.x.V.G.L.Y.T.R.E.E.5.E.R.T.Y.L.G.V.x.i.o.t l v Q.Q.",
"Q.Q.v x g t -.p.x.B.D.H.P.U.Y.T.T.Y.U.P.H.D.B.x.p.-.t g x v Q.Q.",
"Q.Q.Q.c z d i -.i.k.m.C.D.G.H.J.J.H.G.D.C.m.k.i.-.i d z c Q.Q.Q.",
"Q.Q.Q.Q.x l d r X.r.d.z.n.N.V.C.C.V.N.n.z.d.r.X.r d l x Q.Q.Q.Q.",
"Q.Q.Q.Q.Q.x l f r N *.r.p.f.j.k.k.j.f.p.r.*.N r f l x Q.Q.Q.Q.Q.",
"Q.Q.Q.Q.Q.Q.x z h a w z ] %.6.w.w.6.%.] z w a h z x Q.Q.Q.Q.Q.Q.",
"Q.Q.Q.Q.Q.Q.Q.z z k h s u e 0 9 9 0 e u s h k z z Q.Q.Q.Q.Q.Q.Q.",
"Q.Q.Q.Q.Q.Q.Q.Q.Q.z z l k j g g g g j k l z z Q.Q.Q.Q.Q.Q.Q.Q.Q.",
"Q.Q.Q.Q.Q.Q.Q.Q.Q.Q.Q.Q.l l l l l l l l Q.Q.Q.Q.Q.Q.Q.Q.Q.Q.Q.Q."
};
