/* XPM */
static char *folder_32_xpm[] = {
/* columns rows colors chars-per-pixel */
"32 32 226 2",
"   c #5A78A9",
".  c #6287C3",
"X  c #6387C3",
"o  c #6488C4",
"O  c #668AC6",
"+  c #668CC7",
"@  c #688CC7",
"#  c #688DC9",
"$  c #698DC9",
"%  c #6A8DC9",
"&  c #6A8ECA",
"*  c #6B8FCB",
"=  c #6A90CC",
"-  c #6B91CC",
";  c #6C91CD",
":  c #6E93CE",
">  c #6F94CF",
",  c #7396CE",
"<  c #678DD0",
"1  c #6F96D1",
"2  c #6B92D5",
"3  c #6C93D6",
"4  c #6D95D8",
"5  c #6E95D8",
"6  c #6E96D8",
"7  c #6E96D9",
"8  c #6F96DA",
"9  c #7196D1",
"0  c #7296D2",
"q  c #7297D3",
"w  c #7196D5",
"e  c #7398D3",
"r  c #7399D4",
"t  c #7298D7",
"y  c #739BD6",
"u  c #7499D4",
"i  c #7499D7",
"p  c #759BD6",
"a  c #749CD7",
"s  c #7097DA",
"d  c #7098DB",
"f  c #769BD8",
"g  c #779DD8",
"h  c #769CDB",
"j  c #7199DD",
"k  c #729ADD",
"l  c #729ADE",
"z  c #739BDF",
"x  c #749CDF",
"c  c #779EDE",
"v  c #799ED8",
"b  c #789ED9",
"n  c #789EDA",
"m  c #789FDA",
"M  c #799FDA",
"N  c #789EDB",
"B  c #789EDC",
"V  c #799FDD",
"C  c #7AA0DB",
"Z  c #7AA1DB",
"A  c #7BA3DA",
"S  c #7EA2DB",
"D  c #7AA1DC",
"F  c #7BA2DD",
"G  c #7CA2DD",
"H  c #7CA4DF",
"J  c #739BE0",
"K  c #749CE0",
"L  c #759DE0",
"P  c #759DE1",
"I  c #779FE1",
"U  c #79A1E4",
"Y  c #78A2E5",
"T  c #7AA3E7",
"R  c #7BA5E5",
"E  c #7CA5E5",
"W  c #7CA6E6",
"Q  c #7BA4E8",
"!  c #7BA4E9",
"~  c #7BA5E9",
"^  c #7CA5E9",
"/  c #7CA6E9",
"(  c #7CA6EA",
")  c #7DA6EA",
"_  c #7EA7EA",
"`  c #7FA8E9",
"'  c #7EA8EA",
"]  c #7FA8EA",
"[  c #7EA8EB",
"{  c #7FA8EB",
"}  c #7FA9EB",
"|  c #7BAAEE",
" . c #85A9DC",
".. c #8AABDE",
"X. c #8FADDD",
"o. c #81A7E1",
"O. c #80A8E2",
"+. c #80A9E3",
"@. c #88AFE7",
"#. c #80AAE8",
"$. c #81ABE9",
"%. c #80A9EB",
"&. c #80AAEB",
"*. c #83ACE8",
"=. c #85AEE8",
"-. c #84AFE9",
";. c #86AEE8",
":. c #84ADEB",
">. c #80AAEC",
",. c #81ABEC",
"<. c #81ABED",
"1. c #82ACED",
"2. c #83ADED",
"3. c #84ADED",
"4. c #84AEED",
"5. c #85AEED",
"6. c #84ADEE",
"7. c #84AEEE",
"8. c #85AEEE",
"9. c #85AFEE",
"0. c #86AFEF",
"q. c #88B3E5",
"w. c #86B0E9",
"e. c #87B0EA",
"r. c #87B1EA",
"t. c #87B1EB",
"y. c #86B0EC",
"u. c #86B0EF",
"i. c #86B1EF",
"p. c #88B1EB",
"a. c #88B2EB",
"s. c #8AB3EA",
"d. c #88B2EC",
"f. c #89B2EC",
"g. c #89B3EC",
"h. c #88B2ED",
"j. c #89B3ED",
"k. c #8AB4ED",
"l. c #8AB4EE",
"z. c #8BB5EE",
"x. c #8BB5EF",
"c. c #8BB6EF",
"v. c #8CB6EF",
"b. c #93BFEC",
"n. c #86B1F0",
"m. c #87B1F0",
"M. c #88B1F0",
"N. c #88B2F0",
"B. c #89B2F1",
"V. c #89B3F1",
"C. c #89B4F1",
"Z. c #8AB4F1",
"A. c #8AB5F1",
"S. c #8BB5F2",
"D. c #8CB5F2",
"F. c #8CB6F2",
"G. c #8CB6F3",
"H. c #8CB7F3",
"J. c #8DB7F3",
"K. c #8EB9F2",
"L. c #8EB8F3",
"P. c #8EB8F4",
"I. c #8EB9F4",
"U. c #8FB9F4",
"Y. c #8FBAF4",
"T. c #8FBAF5",
"R. c #90BAF5",
"E. c #90BBF5",
"W. c #91BBF6",
"Q. c #91BCF6",
"!. c #92BCF6",
"~. c #92BDF6",
"^. c #93BDF6",
"/. c #93BEF6",
"(. c #93BEF7",
"). c #93BEF8",
"_. c #95C0EC",
"`. c #97C3EC",
"'. c #97C2ED",
"]. c #95C1EF",
"[. c #9AC5EE",
"{. c #9DC9EF",
"}. c #9DCAEF",
"|. c #9ECAEF",
" X c #9FCCEE",
".X c #97C2F4",
"XX c #98C3F3",
"oX c #98C4F3",
"OX c #99C5F3",
"+X c #9AC5F2",
"@X c #9BC7F2",
"#X c #9CC8F0",
"$X c #9DC9F0",
"%X c #9CC8F1",
"&X c #95C0F8",
"*X c #A0CCED",
"=X c #A0CDED",
"-X c #A0CCEE",
";X c #AFD2F3",
":X c #B6D9F5",
">X c #B7DAF6",
",X c #B8DBF6",
"<X c #B9DCF7",
"1X c #BDDEF7",
"2X c #B8DCF9",
"3X c #BBDDF8",
"4X c #B9DDFA",
"5X c #BFDFF8",
"6X c #BDE1FC",
"7X c #BEE2FD",
"8X c #C2E1F9",
"9X c #C5E2F9",
"0X c #C9E4FA",
"qX c #CCE7FA",
"wX c #CCE7FC",
"eX c #CFE9FB",
"rX c #D2EAFC",
"tX c #D6EBFC",
"yX c #D9EDFD",
"uX c #DBEFFD",
"iX c #DFF1FD",
"pX c #E2EFFD",
"aX c #E3F3FE",
"sX c #F1FAFF",
"dX c #F9FCFF",
"fX c None",
/* pixels */
"fXfXfXfXfXfXfXfXfXfXfXfXfXfXfXfXfXfXfXfXfXfXfXfXfXfXfXfXfXfXfXfX",
"fXfXfXfXfXfXfXfXfXfXfXfXfXfXfXfXfXfXfXfXfXfXfXfXfXfXfXfXfXfXfXfX",
"fXfXfXfXfXfXfXfXfXfXfXfXfXfXfXfXfXfXfXfXfXfXfXfXfXfXfXfXfXfXfXfX",
"fXfXfXfXfXfXfXfXfXfXfXfXfXfXfXfXfXfXfXfXfXfXfXfXfXfXfXfXfXfXfXfX",
"fXfXo...G G G G G G F g fXfXfXfXfXfXfXfXfXfXfXfXfXfXfXfXfXfXfXfX",
"fXfXS dX7X7X7X7X7X7X7X6Xu fXfXfXfXfXfXfXfXfXfXfXfXfXfXfXfXfXfXfX",
"fXfXM =X~.~.~.~.~.~.~.~.;XX.X.X.X.X.X.X.X.X.X.X.X.X.fXfXfXfXfXfX",
"fXfXM *X~.~.~.~.~.~.~.~.~.wX4X4X4X4X4X4X4X4X4X4X4X2XC fXfXfXfXfX",
"fXfXg -X~.~.~.~.~.~.~.~.~.~.~.~.~.~.~.~.~.~.~.~.~.~.O.fXfXfXfXfX",
"fXfXp  XK.~.~.~.~.~.~.~.~.~.~.~.~.~.~.~.~.~.~.~.~.~.O.fXfXfXfXfX",
"fXfXr |.=.a.c.v.v.c.x.z.z.l.k.k.k.j.g.f.d.p.t.r.e.e.D fXfXfXfXfX",
"fXfXq }.+.+.+.+.@.s.w.w.w.w.w.w.w.w.w.w.w.w.w.w.w.w.Z 0 e e u fX",
"fXfX9 {.H H H O.sXaXiXuXyXtXrXeXqX0X9X8X5X1X3X<X<X<X,X>X>X>X:X .",
"fXfX> #Xm m m b..XE.Q.Q.Q.Q.Q.!.^./././././.(.).).).).&X&X&X&Xv ",
"fXfX: %Xy y a $XF.J.P.I.U.U.U.Y.Y.T.R.R.E.W.W.Q.Q.Q.Q.Q.Q.!.;.fX",
"fXfX; @X1 1 q.].y.A.S.S.D.D.G.H.H.H.H.J.J.J.P.P.P.I.U.U.U.Y.b fX",
"fXfX* +X- - [.:.5.m.m.N.N.B.B.B.V.V.C.Z.Z.Z.A.A.S.S.D.D.G.y.n fX",
"fXfX& OX+ A '.E 7.7.8.8.8.9.9.0.u.u.u.i.n.m.m.m.m.N.N.B.M.N fXfX",
"fXfX# oX. _.*.R ,.,.<.1.1.1.1.1.2.2.2.2.6.7.7.7.8.8.8.4.$.f fXfX",
"fXfX@ XX= `.I _ } } } } %.&.>.>.>.>.>.,.,.,.,.,.<.1.1.` B fXfXfX",
"fXfXO .Xh.-.P ) ) _ _ _ _ _ _ _ _ ' [ { { { } } } } ] W i fXfXfX",
"fXfX, 7XL.x T ^ ^ ^ ^ ^ ^ / / ( ( ) ) ) ) ) ) _ _ _ U c V fXfXfX",
"fXfXo pX3.8 ! ! ! ! ! ! ! ! ! ! ~ ~ ~ ^ ^ ^ ^ ^ ^ Q P t fXfXfXfX",
"fXfXX !.K < 2 3 4 5 6 7 s s d d d k k l l z J J K j L h fXfXfXfX",
"fXfX$ #.| | | | | | | | | | | | | | | | | | | | | Y w fXfXfXfXfX",
"fXfXfX% % % % % % % % % % % % % % % % % % % % % % %   fXfXfXfXfX",
"fXfXfXfXfXfXfXfXfXfXfXfXfXfXfXfXfXfXfXfXfXfXfXfXfXfXfXfXfXfXfXfX",
"fXfXfXfXfXfXfXfXfXfXfXfXfXfXfXfXfXfXfXfXfXfXfXfXfXfXfXfXfXfXfXfX",
"fXfXfXfXfXfXfXfXfXfXfXfXfXfXfXfXfXfXfXfXfXfXfXfXfXfXfXfXfXfXfXfX",
"fXfXfXfXfXfXfXfXfXfXfXfXfXfXfXfXfXfXfXfXfXfXfXfXfXfXfXfXfXfXfXfX",
"fXfXfXfXfXfXfXfXfXfXfXfXfXfXfXfXfXfXfXfXfXfXfXfXfXfXfXfXfXfXfXfX",
"fXfXfXfXfXfXfXfXfXfXfXfXfXfXfXfXfXfXfXfXfXfXfXfXfXfXfXfXfXfXfXfX"
};
