/* XPM */
static char *gear_32_xpm[] = {
/* columns rows colors chars-per-pixel */
"32 32 44 1",
"  c #636E6D",
". c #768483",
"X c #798685",
"o c #7B8887",
"O c #7D8B8A",
"+ c #818E8D",
"@ c #82908F",
"# c #869392",
"$ c #899695",
"% c #8B9897",
"& c #8D9A99",
"* c #919E9D",
"= c #93A09F",
"- c #96A3A2",
"; c #9AA6A5",
": c #9CA8A7",
"> c #9EAAA9",
", c #A2ADAC",
"< c #A5B0AF",
"1 c #A6B2B1",
"2 c #ABB5B4",
"3 c #ADB8B6",
"4 c #AFB9B8",
"5 c #B3BDBC",
"6 c #B6C0BF",
"7 c #B4C2C0",
"8 c #BBC4C3",
"9 c #BFC8C7",
"0 c #BECAC9",
"q c #C0C8C7",
"w c #C1CBCA",
"e c #C3D0CF",
"r c #C8D1CF",
"t c #C5D4D2",
"y c #C9D5D4",
"u c #CCD8D6",
"i c #CDDBDA",
"p c #D2D7D7",
"a c #D1DDDC",
"s c #D6E3E1",
"d c #D8E5E3",
"f c #E1EEEC",
"g c #E9FAF8",
"h c None",
/* pixels */
"hhhhhhhhhhhhh$1111-hhhhhhhhhhhhh",
"hhhhhhhhhhhhh-gggga*hhhhhhhhhhhh",
"hhhhhhh%hhhhh:wwww5&hhhhh%hhhhhh",
"hhhhhh*4%hhh#,qqqq9$hhhh*3=hhhhh",
"hhhhh*spy&%&70q9qqqw1%%>sa5=hhhh",
"hhhh*sy90atfu999999qadta99y5=hhh",
"hhh#ar888898888888888898888y,&hh",
"hhh--88888883,,,<,:158888885$hhh",
"hhhh$,88882&18888886>*58887%hhhh",
"hhhhh#577<*57777777773&578,#hhhh",
"hhhhh-663&5665566666652&565$hhhh",
"hhhh&555*25555551555555:,55>hhhh",
"h$$#*552*55553&#$#-55555%552%$$$",
"=7yu955;,5555$hhhh#-5555=555wui,",
"$,44444*2444,#hhhhh@4444:444444=",
"#,33333=2333:#hhhhh#1333>333333*",
"#,22222>2222,@hhhhh+2222,222222*",
"#;12222112223$hhhh+-2222,222221%",
"hOO+%114511115%O+O;21111111,#OO+",
"hhhhO><1e11<115ap92<<<146<<*ohhh",
"hhhhh%,,50,,,,,,,,,,,,1e1,,Ohhhh",
"hhhhhX,,,08,,,,,,,,,,,w4,,=ohhhh",
"hhhhO&,,>,we<,,,,,,,2y5,,>:Ohhhh",
"hhhh&5>>>>>5at51,27yt1>>>>>3Ohhh",
"hhhX7:::::::>4euau01>::::>::*Ohh",
"hhh%o;:::;-:::::::::::-::::$ohhh",
"hhhhho-;*X.+*;;;;;;;%O.+;;$.hhhh",
"hhhhhho$.hhh.#;;;;-..hhXo#.hhhhh",
"hhhhhhhXhhhhh+----*Xhhhhh.hhhhhh",
"hhhhhhhhhhhhho----%ohhhhhhhhhhhh",
"hhhhhhhhhhhhh.----+ hhhhhhhhhhhh",
"hhhhhhhhhhhhh$$$$$$hhhhhhhhhhhhh"
};
