/* XPM */
static char *home_xpm[] = {
/* columns rows colors chars-per-pixel */
"32 32 226 2", 
"   c #391C00",
".  c #222423",
"X  c #232523",
"o  c #292E30",
"O  c #2B3031",
"+  c #2B3133",
"@  c #2C3132",
"#  c #2D3133",
"$  c #2F3333",
"%  c #2F3334",
"&  c #303535",
"*  c #303636",
"=  c #313636",
"-  c #333636",
";  c #343737",
":  c #373736",
">  c #373737",
",  c #343837",
"<  c #303638",
"1  c #323838",
"2  c #323839",
"3  c #32383A",
"4  c #353938",
"5  c #363938",
"6  c #363A39",
"7  c #343A3A",
"8  c #363A3C",
"9  c #383938",
"0  c #393938",
"q  c #383A38",
"w  c #383B38",
"e  c #393A39",
"r  c #3A3A3A",
"t  c #3A3B3B",
"y  c #393C3B",
"u  c #383C3C",
"i  c #393E3F",
"p  c #3C3D3C",
"a  c #3C3D3D",
"s  c #3C3E3C",
"d  c #3E3F3E",
"f  c #3E3F3F",
"g  c #602F00",
"h  c #6C3400",
"j  c #723800",
"k  c #7B3B00",
"l  c #7B3D02",
"z  c #047000",
"x  c #007700",
"c  c #007A00",
"v  c #007E00",
"b  c #3E413F",
"n  c #566623",
"m  c #596428",
"M  c #3A4040",
"N  c #3C4140",
"B  c #3E4040",
"V  c #3F4140",
"C  c #3C4042",
"Z  c #3C4242",
"A  c #3E4242",
"S  c #404340",
"D  c #414242",
"F  c #414343",
"G  c #434543",
"H  c #414344",
"J  c #404444",
"K  c #444545",
"L  c #444647",
"P  c #444846",
"I  c #464948",
"U  c #464A48",
"Y  c #464C4C",
"T  c #484A48",
"R  c #4A4C4A",
"E  c #4E4E4A",
"W  c #4A4E4C",
"Q  c #4C504C",
"!  c #4E504E",
"~  c #50524E",
"^  c #50524F",
"/  c #505250",
"(  c #525451",
")  c #525452",
"_  c #545450",
"`  c #575550",
"'  c #545652",
"]  c #505656",
"[  c #615F5A",
"{  c gray39",
"}  c #606461",
"|  c #656661",
" . c #656865",
".. c #6A6964",
"X. c #686B69",
"o. c #6A6D6A",
"O. c #74736F",
"+. c #767873",
"@. c #7B7C79",
"#. c #7E7E79",
"$. c #824004",
"%. c #8A4304",
"&. c #894306",
"*. c #914600",
"=. c #904706",
"-. c #974900",
";. c #984A00",
":. c #A14E00",
">. c #A44F00",
",. c #A75100",
"<. c #B75800",
"1. c #B95900",
"2. c #BB5C02",
"3. c #BF5D01",
"4. c #93703C",
"5. c #94713D",
"6. c #96723D",
"7. c #97733D",
"8. c #98743E",
"9. c #99743E",
"0. c #9A763E",
"q. c #9B763E",
"w. c #9C773F",
"e. c #C35E03",
"r. c #C46000",
"t. c #C66102",
"y. c #C46004",
"u. c #C86100",
"i. c #CA6300",
"p. c #CF6503",
"a. c #C86104",
"s. c #C86106",
"d. c #CE6305",
"f. c #CD6406",
"g. c #D16500",
"h. c #D36605",
"j. c #9D7A43",
"k. c #9F7C45",
"l. c #A17F48",
"z. c #008100",
"x. c #078100",
"c. c #7F807E",
"v. c #CF9A08",
"b. c #A3814A",
"n. c #A5824C",
"m. c #A5834D",
"M. c #A7854E",
"N. c #A7864F",
"B. c #A98751",
"V. c #AA8852",
"C. c #AB8953",
"Z. c #AC8A54",
"A. c #AD8C56",
"S. c #AE8C57",
"D. c #AF8E58",
"F. c #B08F59",
"G. c #B1905B",
"H. c #B2915C",
"J. c #B3925D",
"K. c #878883",
"L. c #878A84",
"P. c #888A85",
"I. c #8C8D8D",
"U. c #8D908A",
"Y. c #909389",
"T. c #90938A",
"R. c #90928D",
"E. c #91928E",
"W. c #8F9191",
"Q. c #929292",
"!. c gray58",
"~. c #9A9C93",
"^. c #9C9E95",
"/. c #989999",
"(. c gray62",
"). c #9FA198",
"_. c #A2A39A",
"`. c #A5A69D",
"'. c #A0A2A2",
"]. c #A4A4A4",
"[. c #A4A5A5",
"{. c #A7A8A0",
"}. c #AAABA2",
"|. c #ACADA5",
" X c #ACACAC",
".X c #AFB0A7",
"XX c #ADB0A9",
"oX c #B2B2AA",
"OX c #B4B5AD",
"+X c #B0B2B2",
"@X c #B1B2B2",
"#X c #B7B7B7",
"$X c #BABDB6",
"%X c #B9B9B9",
"&X c #BCBDBA",
"*X c #BCBDBD",
"=X c #C0C2C2",
"-X c #C2C4C4",
";X c gray78",
":X c gray79",
">X c #CCCECE",
",X c #CFD1D1",
"<X c #D0D0D0",
"1X c #D5D7D7",
"2X c #D8D8D8",
"3X c gray86",
"4X c #C9DFFF",
"5X c #CADFFF",
"6X c #DFE1E1",
"7X c #D4E5FF",
"8X c #DBEAFF",
"9X c #E3E3E1",
"0X c gray89",
"qX c #E6E6E6",
"wX c #E7E9E9",
"eX c #ECECEC",
"rX c gray93",
"tX c #E1EDFF",
"yX c #EFF5FF",
"uX c #F5F9FF",
"iX c #F8F8F8",
"pX c gray99",
"aX c #FCFDFF",
"sX c #FEFEFF",
"dX c gray100",
"fX c None",
/* pixels */
"fXfXfXfXfXfXfXfXfXfXfXfXfXfXfXfXfXfXfXfXfXfXfXfXfXfXfXfXfXfXfXfX",
"fXfXfXfXfXfXfXfXfXfXfXfXfXfXfXfXfXfXfXfXfXfXfXfXfXfXfXfXfXfXfXfX",
"fXfXfXfXfXfXfXfXfXfXfXfXfXfXfX) ' fXfXfXfXfXfXfXfXfXfXfXfXfXfXfX",
"fXfXfXfXfXfXfXfXfXfXfXfXfXfX/ ( ' ) fXfXfXfXfXfXfXfXfXfXfXfXfXfX",
"fXfXfXfXfXfXfXfXfXfXfXfXfX! w r p G ~ fXfXfXfXfXfXfXfXfXfXfXfXfX",
"fXfXfXfXfXfXfXfXfXfXfXfXW q : Q.!.0 S Q fXfX2 N I ^ fXfXfXfXfXfX",
"fXfXfXfXfXfXfXfXfXfXfXT q t I.-X-XW.a b R fXP.dXdX$XfXfXfXfXfXfX",
"fXfXfXfXfXfXfXfXfXfXP 5 > (.2X2X2X2X].e s U P.9XdX$XfXfXfXfXfXfX",
"fXfXfXfXfXfXfXfXfXJ 4 t /.>X>X>X>X>X>X'.f y  .&X9XXXfXfXfXfXfXfX",
"fXfXfXfXfXfXfXfXA ; 9  X0X0X0X0X0X0X0X0X#Xt 6 o.&XP.fXfXfXfXfXfX",
"fXfXfXfXfXfXfXM - a [.1X1X1X1X1X1X1X1X1X1X+XV , X.P.fXfXfXfXfXfX",
"fXfXfXfXfXfXu & d %XrXrXrXrXrXrXrXrXrXrXrXrX:XD = } fXfXfXfXfXfX",
"fXfXfXfXfX7 % B @X6X6X6X6X6X6X6X6X6X6X6X6X6X6X=XF $ 8 fXfXfXfXfX",
"fXfXfXfX< # D ;XiXiXiXiXiXiXiXiXiXiXiXiXiXiXiXiX3XK @ 3 fXfXfXfX",
"fXfXfX1 O H *XwXwXwXwXwXwXwXwXwXwXwXwXwXwXwXwXwXwX,XL o * fXfXfX",
"fXfXY i . <XpXpXpXpXpXpXpXpXpXpXpXpXpXpXpXpXpXpXpXpXqXX + C fXfX",
"fXfX] Y Y.wXwXwXwXwXwXwXwXwXwXwXwXwXwXwXwXwXwXwXwXwXwXT.Z Y fXfX",
"fXfXfXfX~.pXpXpXpXpXpXpXJ.J.J.J.J.H.G.F.pXpXpXpXpXpXpX~.fXfXfXfX",
"fXfXfXfX^.wXw.w.w.w.w.wXJ.  g g g g g S.wXw.w.w.w.w.wX^.fXfXfXfX",
"fXfXfXfX).pX0.sXaXaX0.pXJ.h *.-.-.*.;.Z.pX0.sXaXaX0.pX).fXfXfXfX",
"fXfXfXfX_.wX9.uXyXyX9.wXG.j :.>.>.:.,.V.wX9.uXyXyX9.wX_.fXfXfXfX",
"fXfXfXfX`.pX4.6.8.q.7.pXD.k 1.<.<.1.<.N.pX7.4.6.8.q.pX`.fXfXfXfX",
"fXfXfXfX{.wX6.tX7X7X6.wXA.%.h.d.d.h.a.m.wX6.tX7X7X6.wX{.fXfXfXfX",
"fXfXfXfX}.pX5.8X5X4X5.pXC.=.v.e.e.u.s.b.pX5.8X5X4X5.pX}.fXfXfXfX",
"fXfXfXfX|.wX4.4.4.4.4.wXB.&.g.p.p.g.f.l.wX4.4.4.4.4.wX|.fXfXfXfX",
"fXfXfXfX.XpXpXpXpXpXpXpXM.$.i.t.t.i.y.k.pXpXpXpXpXpXpX.XfXfXfXfX",
"fXfXfXfXoXwXwXwXwXwXwXwXn.l r.3.3.r.2.j.wXwXwXwXwXwXwXoXfXfXfXfX",
"fXfXfXfXOXpXpXpXpXpXpXeXm z x c v z.x.n eXpXpXpXpXpXpXOXfXfXfXfX",
"fXfXfXfXE _ | +.L.U.R.@.{ { { { { { { { c.E.K.#.O...[ ` fXfXfXfX",
"fXfXfXfXE _ | +.L.U.R.{ { { { { { { { { { E.K.#.O...[ ` fXfXfXfX",
"fXfXfXfXfXfXfXfXfXfXfXfXfXfXfXfXfXfXfXfXfXfXfXfXfXfXfXfXfXfXfXfX",
"fXfXfXfXfXfXfXfXfXfXfXfXfXfXfXfXfXfXfXfXfXfXfXfXfXfXfXfXfXfXfXfX"
};
