/* XPM */
static char *ida_32_xpm[] = {
/* columns rows colors chars-per-pixel */
"32 32 8 1",
"  c #FEFFFF",
". c black",
"X c #808080",
"o c #C0C0C0",
"O c None",
"+ c black",
"@ c black",
"# c black",
/* pixels */
"OOOOOOOOOOOOOOOOOOOOOOOOOOOOOOOO",
"OOOOOOOOOoooXXXXooOOOOOOOOOOOOOO",
"OOOOOOoXXX........XXOOOOOOOOOOOO",
"OOOOOoX..............XOOOOOOOOOO",
"OOOoX....XXX.X...oX...XoOOOOOOOO",
"OOoX....XXooX..XX.......OOOOOOOO",
"OOX....XXo   XXXXXX.....XOOOOOOO",
"OoX.X..Xo   oX  XXXX..XX.XOOOOOO",
"Oo....XX     X oXXXX..X...oOOOOO",
"oX....X      oooXXX........oOOOO",
"o.XX...X        XXX..XX.....XOOO",
"X.XX.XoXX  oX.XXoXX...XX.....XOO",
"X.X...X.X  XXXXXXXX.....X.....XO",
"..X..XX.X  oXXXooX....X.......XO",
"....XXoXX  oXXXXXXXX...........o",
"....X  Xo   oooo oX..X......X..X",
"....X  X         X.X....X.......",
"X...X oo         XXX...XX.......",
"oX..XoX  o      oXX....XX......X",
"Oo..XoXXXXo      oX............X",
"OoXXXXXX          X............X",
"OOOOXXXXo         X............X",
"OOOOXXX.XXo       X...........XO",
"OOOOoXXXo        oXX........XoOO",
"OOOOOXXoo         XX.......XOOOO",
"OOOOOoX        o  XX.....XoOOOOO",
"OOOOOOo o    o    XX....oOOOOOOO",
"OOOOOOOoXXXXo     oX....XOOOOOOO",
"OOOOOOOOOXX      oXoX...oOOOOOOO",
"OOOOOOOOOXo     XXo o....OOOOOOO",
"OOOOOOOOoXo  oXoo    X...XOOOOOO",
"oOOOOOOOoXXXXXo      o....XOOOOO"
};
