/* XPM */
static char *idaConnected_32_xpm[] = {
/* columns rows colors chars-per-pixel */
"32 32 68 1",
"  c black",
". c #0C0C00860086",
"X c #1818010A010A",
"o c #303002140214",
"O c #363602560256",
"+ c #393A02780278",
"@ c #6364044A044A",
"# c #77F2052E052E",
"$ c #FB3B0AD80AD8",
"% c #FFF90B0F0B0F",
"& c #EE551B521B52",
"* c #EF311A861A86",
"= c #EDAE1BEC1BEC",
"- c #F6F7135E135E",
"; c #F3FF161A161A",
": c #F65613F213F2",
"> c #F51F15101510",
", c #F57F14B814B8",
"< c #F9FF10921092",
"1 c #FAD30FD00FD0",
"2 c #F87F11F611F6",
"3 c #F0FF18DE18DE",
"4 c #DA7F2D982D98",
"5 c #D5FF31BC31BC",
"6 c #E67F228A228A",
"7 c #E97F1FC61FC6",
"8 c #E07F28102810",
"9 c #F63127362736",
"0 c #F8B120092009",
"q c #FFE127DE27DE",
"w c #FFCF39283928",
"e c #FFCB3C0A3C0A",
"r c #BF7F46784678",
"t c #BAFF4A9C4A9C",
"y c #A77F5C925C92",
"u c #A5FF5DF45DF4",
"i c #A4CD5F0E5F0E",
"p c #B37F51845184",
"a c #B21152D652D6",
"s c #9E7F64DE64DE",
"d c #96FF6BC66BC6",
"f c #8F7F72AE72AE",
"g c #8DFF74107410",
"h c #ED65407E407E",
"j c #FFBF47924792",
"k c #E5BB567E567E",
"l c #E3B95C485C48",
"z c #FFB353185318",
"x c #DB8973CC73CC",
"c c #807F807F807F",
"v c #D3598B4D8B4D",
"b c #D2798DD18DD1",
"n c #CFA195FF95FF",
"m c #FF71927D927D",
"M c #FF6B98419841",
"N c #C82FAB5FAB5F",
"B c #C17DBE9BBE9B",
"V c #FF49B7F3B7F3",
"C c #FF45BAD5BAD5",
"Z c #FF45BC8FBC8F",
"A c #C0BFC0BFC0BF",
"S c #FF39C65DC65D",
"D c #FF2FD161D161",
"F c #FF1BE32DE32D",
"G c #FF0FEEB5EEB5",
"H c #FF01FD1DFD1D",
"J c #FEFDFFFFFFFF",
"K c None",
/* pixels */
"KKKKKKKKKKKKKKKKKKKKKKKKKKKKKKKK",
"KKKKKKKKKAAAccccAAKKKKKKKKKKKKKK",
"KKKKKKAccc        ccKKKKKKKKKKKK",
"KKKKKAc              cKKKKKKKKKK",
"KKKAc    ccc c   Ac   cAKKKKKKKK",
"KKAc    ccAAc  cc       KKKKKKKK",
"KKc    ccAJJJcccccc     cKKKKKKK",
"KAc c  pAJJJAdMJcccc  cc cKKKKKK",
"KA    c%JJJJJuzAcccc  c   AKKKKK",
"Ac    c%JJJJJvhAccc        AKKKK",
"A ccXO.<JGJJJVzJccc  cc     cKKK",
"c cc+;b2rjJA5#4ylcc   cc     cKK",
"c c .@-$*ZGca1=:icc     c     cK",
"  c o6:%&eCA8>%0xc    c       cK",
"    ct91;SJAg,=,sccc           A",
"    cSD3nmJJxkhnwBc  c      c  c",
"    cJF3JJJJJVzJHc c    c       ",
"c   cJN0JJJJJVzJJccc   cc       ",
"Ac  cAfqJAJJJVzJAcc    cc      c",
"KA  cAf3ccAJJVzJJAc            c",
"KAccccd7JJJJJVzJJJc            c",
"KKKKccccAJJJJJJJJJc            c",
"KKKKccc ccAJJJJJJJc           cK",
"KKKKAcccAJJJJJJJJAcc        cAKK",
"KKKKKccAAJJJJJJJJJcc       cKKKK",
"KKKKKAcJJJJJJJJAJJcc     cAKKKKK",
"KKKKKKAJAJJJJAJJJJcc    AKKKKKKK",
"KKKKKKKAccccAJJJJJAc    cKKKKKKK",
"KKKKKKKKKccJJJJJJAcAc   AKKKKKKK",
"KKKKKKKKKcAJJJJJccAJA    KKKKKKK",
"KKKKKKKKAcAJJAcAAJJJJc   cKKKKKK",
"AKKKKKKKAcccccAJJJJJJA    cKKKKK"
};
