/* XPM */
static char *play_xpm[] = {
/* columns rows colors chars-per-pixel */
"32 32 170 2",
"   c #060606",
".  c gray6",
"X  c #101010",
"o  c #111111",
"O  c #161616",
"+  c gray9",
"@  c #1D1D1D",
"#  c #1E1E1E",
"$  c gray13",
"%  c #222222",
"&  c gray16",
"*  c #2A2A2A",
"=  c gray17",
"-  c #2C2C2C",
";  c #2D2D2D",
":  c gray18",
">  c #2F2F2F",
",  c gray19",
"<  c #343434",
"1  c #353535",
"2  c gray21",
"3  c gray22",
"4  c #393939",
"5  c #3A3A3A",
"6  c gray23",
"7  c gray24",
"8  c #3F3F3F",
"9  c gray25",
"0  c #414141",
"q  c gray26",
"w  c #434343",
"e  c #444444",
"r  c gray27",
"t  c #464646",
"y  c gray28",
"u  c #484848",
"i  c #494949",
"p  c gray29",
"a  c #4B4B4B",
"s  c #4C4C4C",
"d  c gray30",
"f  c #4E4E4E",
"g  c gray31",
"h  c #505050",
"j  c #515151",
"k  c gray32",
"l  c #535353",
"z  c gray33",
"x  c #555555",
"c  c #565656",
"v  c gray34",
"b  c #585858",
"n  c gray35",
"m  c #5A5A5A",
"M  c #5B5B5B",
"N  c gray36",
"B  c #5D5D5D",
"V  c gray37",
"C  c #5F5F5F",
"Z  c #606060",
"A  c gray38",
"S  c #626262",
"D  c gray39",
"F  c #646464",
"G  c #656565",
"H  c gray40",
"J  c #676767",
"K  c #686868",
"L  c DimGray",
"P  c #6A6A6A",
"I  c gray42",
"U  c #6C6C6C",
"Y  c #6D6D6D",
"T  c gray43",
"R  c #6F6F6F",
"E  c gray44",
"W  c #717171",
"Q  c #727272",
"!  c gray45",
"~  c #747474",
"^  c gray46",
"/  c #767676",
"(  c #777777",
")  c gray47",
"_  c #797979",
"`  c gray48",
"'  c #7B7B7B",
"]  c #7C7C7C",
"[  c gray49",
"{  c #7E7E7E",
"}  c #7F7F7F",
"|  c #808080",
" . c #818181",
".. c gray51",
"X. c #848484",
"o. c gray53",
"O. c gray54",
"+. c #8B8B8B",
"@. c #8E8E8E",
"#. c gray56",
"$. c gray57",
"%. c #939393",
"&. c gray59",
"*. c #979797",
"=. c gray62",
"-. c #A0A0A0",
";. c gray63",
":. c #A2A2A2",
">. c gray64",
",. c #A4A4A4",
"<. c gray65",
"1. c #A7A7A7",
"2. c gray66",
"3. c #A9A9A9",
"4. c #B4B4B4",
"5. c gray72",
"6. c #B9B9B9",
"7. c gray73",
"8. c gray74",
"9. c #C3C3C3",
"0. c gray77",
"q. c #C5C5C5",
"w. c #C8C8C8",
"e. c gray79",
"r. c #CBCBCB",
"t. c gray80",
"y. c #CDCDCD",
"u. c #CECECE",
"i. c #D2D2D2",
"p. c gray83",
"a. c #D5D5D5",
"s. c #D7D7D7",
"d. c #D8D8D8",
"f. c gray85",
"g. c #DADADA",
"h. c gainsboro",
"j. c #DDDDDD",
"k. c gray87",
"l. c #DFDFDF",
"z. c gray88",
"x. c #E1E1E1",
"c. c #E2E2E2",
"v. c gray89",
"b. c #E4E4E4",
"n. c gray90",
"m. c #E6E6E6",
"M. c #E7E7E7",
"N. c gray91",
"B. c #E9E9E9",
"V. c gray92",
"C. c #ECECEC",
"Z. c gray93",
"A. c #EEEEEE",
"S. c #EFEFEF",
"D. c gray94",
"F. c #F1F1F1",
"G. c gray95",
"H. c #F4F4F4",
"J. c gray96",
"K. c #F6F6F6",
"L. c gray97",
"P. c #F8F8F8",
"I. c #F9F9F9",
"U. c gray98",
"Y. c #FBFBFB",
"T. c gray99",
"R. c #FDFDFD",
"E. c #FEFEFE",
"W. c gray100",
"Q. c None",
/* pixels */
"Q.Q.Q.Q.Q.Q.Q.Q.Q.Q.Q.Q.X.X.X.X.X.X.X.X.Q.Q.Q.Q.Q.Q.Q.Q.Q.Q.Q.Q.",
"Q.Q.Q.Q.Q.Q.Q.Q.Q. ...| } [ ' ` ` ' [ } | .. .Q.Q.Q.Q.Q.Q.Q.Q.Q.",
"Q.Q.Q.Q.Q.Q.Q.{ { ] ) ! U J S Z Z S J U ! ) ] { { Q.Q.Q.Q.Q.Q.Q.",
"Q.Q.Q.Q.Q.Q.] ` / Y S U +.1.7.0.0.7.1.+.U S Y / ` ] Q.Q.Q.Q.Q.Q.",
"Q.Q.Q.Q.Q._ / R S R 2.y.f.z.v.n.b.x.h.a.t.2.R S R / _ Q.Q.Q.Q.Q.",
"Q.Q.Q.Q.( ~ P V %.y.l.B.C.A.S.D.S.Z.V.M.c.f.r.%.V P ~ ( Q.Q.Q.Q.",
"Q.Q.Q.^ Q K V 3.s.B.A.F.H.J.L.L.L.K.H.F.Z.M.l.i.3.V K Q ^ Q.Q.Q.",
"Q.Q.Q W L M 2.g.C.F.J.L.U.Y.T.T.T.Y.U.P.J.D.B.x.p.2.M L W Q Q.Q.",
"Q.Q.E P M $.s.Z.G.K.I.T.4.H.E.E.E.E.R.T.Y.L.G.V.x.i.$.M P E Q.Q.",
"Q.T U A L y.C.G.L.U.R.E.@.$.p.W.W.W.W.E.R.Y.P.G.B.k.r.L A U T Q.",
"Q.U H x <.c.F.K.U.R.E.E.o.[ ^ =.G.W.W.W.E.E.Y.L.D.m.d.<.x H U Q.",
"Q.K C A u.A.H.I.T.E.E.W.} ~ I F T e.W.W.W.E.R.Y.H.C.z.r.A C K Q.",
"J G b X.g.F.K.Y.R.E.W.W.( I A m c c #.F.W.W.E.T.P.D.n.p.X.b G J ",
"G A k >.f.V.L.T.E.W.W.W.W D v g a s h F w.W.W.R.U.G.N.f.>.k A G ",
"D V d 6.j.V.H.Y.E.W.W.W.U N g e q e p j n &.G.E.Y.H.V.j.6.d V D ",
"S N p 0.k.C.J.T.E.W.W.W.b g e 4 4 7 q i j N W r.T.J.C.k.0.p N S ",
"Z M i 0.k.C.J.T.E.W.W.W.; # X   . @ - 6 p m W r.T.J.C.k.0.i M Z ",
"C m p 5.j.V.H.Y.E.W.W.W., % + o O $ > 7 s $.G.E.Y.H.V.j.5.p m C ",
"V m s ;.f.N.G.U.R.W.W.W.2 * $ @ $ & 1 j 9.W.W.R.U.G.N.f.;.s m V ",
"N m g | p.n.D.P.T.E.W.W.8 1 : = ; < [ S.W.W.E.T.P.D.n.p.| g m N ",
"Q.m k b r.z.C.H.Y.R.E.W.i 9 5 3 p 8.W.W.W.E.R.Y.H.C.z.r.b k m Q.",
"Q.n x y >.d.m.D.L.Y.E.E.z s y ..S.W.W.W.E.E.Y.L.D.m.d.>.y x n Q.",
"Q.b c f B r.k.B.G.P.Y.R.C H q.W.W.W.W.E.R.Y.P.G.B.k.r.B f c b Q.",
"Q.Q.v l t +.i.x.V.G.L.Y.*.D.E.E.E.E.R.T.Y.L.G.V.x.i.+.t l v Q.Q.",
"Q.Q.v x g t ,.p.x.B.D.H.P.U.Y.T.T.Y.U.P.H.D.B.x.p.,.t g x v Q.Q.",
"Q.Q.Q.c z d i ,.i.k.m.C.D.G.H.J.J.H.G.D.C.m.k.i.,.i d z c Q.Q.Q.",
"Q.Q.Q.Q.x l d r O.r.d.z.n.N.V.C.C.V.N.n.z.d.r.O.r d l x Q.Q.Q.Q.",
"Q.Q.Q.Q.Q.x l f r N :.r.p.f.j.k.k.j.f.p.r.:.N r f l x Q.Q.Q.Q.Q.",
"Q.Q.Q.Q.Q.Q.x z h a w z { -.5.9.9.5.-.{ z w a h z x Q.Q.Q.Q.Q.Q.",
"Q.Q.Q.Q.Q.Q.Q.z z k h s u e 0 9 9 0 e u s h k z z Q.Q.Q.Q.Q.Q.Q.",
"Q.Q.Q.Q.Q.Q.Q.Q.Q.z z l k j g g g g j k l z z Q.Q.Q.Q.Q.Q.Q.Q.Q.",
"Q.Q.Q.Q.Q.Q.Q.Q.Q.Q.Q.Q.l l l l l l l l Q.Q.Q.Q.Q.Q.Q.Q.Q.Q.Q.Q."
};
