/* XPM */
static char *rewind_xpm[] = {
/* columns rows colors chars-per-pixel */
"32 32 170 2",
"   c gray3",
".  c #0C0C0C",
"X  c gray7",
"o  c gray8",
"O  c gray9",
"+  c #181818",
"@  c #191919",
"#  c #1E1E1E",
"$  c #202020",
"%  c #232323",
"&  c gray15",
"*  c #272727",
"=  c #282828",
"-  c #2A2A2A",
";  c gray17",
":  c #2D2D2D",
">  c #2F2F2F",
",  c gray19",
"<  c #323232",
"1  c gray20",
"2  c #343434",
"3  c gray22",
"4  c #393939",
"5  c #3C3C3C",
"6  c gray24",
"7  c #3F3F3F",
"8  c gray25",
"9  c #414141",
"0  c #434343",
"q  c #444444",
"w  c gray27",
"e  c #464646",
"r  c gray28",
"t  c #484848",
"y  c #494949",
"u  c gray29",
"i  c #4B4B4B",
"p  c #4C4C4C",
"a  c gray30",
"s  c #4E4E4E",
"d  c gray31",
"f  c #505050",
"g  c #515151",
"h  c gray32",
"j  c #535353",
"k  c gray33",
"l  c #555555",
"z  c #565656",
"x  c gray34",
"c  c #585858",
"v  c gray35",
"b  c #5A5A5A",
"n  c #5B5B5B",
"m  c gray36",
"M  c #5D5D5D",
"N  c gray37",
"B  c #5F5F5F",
"V  c #606060",
"C  c gray38",
"Z  c #626262",
"A  c gray39",
"S  c #656565",
"D  c gray40",
"F  c #676767",
"G  c #686868",
"H  c DimGray",
"J  c #6A6A6A",
"K  c #6C6C6C",
"L  c #6D6D6D",
"P  c gray43",
"I  c #6F6F6F",
"U  c gray44",
"Y  c #717171",
"T  c #727272",
"R  c gray45",
"E  c #747474",
"W  c gray46",
"Q  c #767676",
"!  c #777777",
"~  c gray47",
"^  c #797979",
"/  c gray48",
"(  c #7B7B7B",
")  c #7C7C7C",
"_  c gray49",
"`  c #7E7E7E",
"'  c #7F7F7F",
"]  c #808080",
"[  c #818181",
"{  c gray51",
"}  c #848484",
"|  c #868686",
" . c gray54",
".. c #8B8B8B",
"X. c gray57",
"o. c #939393",
"O. c gray61",
"+. c #9D9D9D",
"@. c #A0A0A0",
"#. c gray63",
"$. c #A2A2A2",
"%. c gray64",
"&. c #A4A4A4",
"*. c #A5A5A5",
"=. c gray65",
"-. c #A7A7A7",
";. c gray66",
":. c #A9A9A9",
">. c #AAAAAA",
",. c gray68",
"<. c gray69",
"1. c #B1B1B1",
"2. c gray70",
"3. c #B4B4B4",
"4. c gray72",
"5. c #B9B9B9",
"6. c gray73",
"7. c #BCBCBC",
"8. c gray",
"9. c #C0C0C0",
"0. c gray76",
"q. c #C3C3C3",
"w. c gray77",
"e. c gray79",
"r. c #CBCBCB",
"t. c gray80",
"y. c #CDCDCD",
"u. c #CECECE",
"i. c #D2D2D2",
"p. c gray83",
"a. c #D5D5D5",
"s. c #D7D7D7",
"d. c #D8D8D8",
"f. c gray85",
"g. c #DADADA",
"h. c gainsboro",
"j. c #DDDDDD",
"k. c gray87",
"l. c #DFDFDF",
"z. c gray88",
"x. c #E1E1E1",
"c. c #E2E2E2",
"v. c gray89",
"b. c #E4E4E4",
"n. c gray90",
"m. c #E6E6E6",
"M. c #E7E7E7",
"N. c gray91",
"B. c #E9E9E9",
"V. c gray92",
"C. c #ECECEC",
"Z. c gray93",
"A. c #EEEEEE",
"S. c #EFEFEF",
"D. c gray94",
"F. c #F1F1F1",
"G. c gray95",
"H. c #F4F4F4",
"J. c gray96",
"K. c #F6F6F6",
"L. c gray97",
"P. c #F8F8F8",
"I. c #F9F9F9",
"U. c gray98",
"Y. c #FBFBFB",
"T. c gray99",
"R. c #FDFDFD",
"E. c #FEFEFE",
"W. c gray100",
"Q. c None",
/* pixels */
"Q.Q.Q.Q.Q.Q.Q.Q.Q.Q.Q.Q.} } } } } } } } Q.Q.Q.Q.Q.Q.Q.Q.Q.Q.Q.Q.",
"Q.Q.Q.Q.Q.Q.Q.Q.Q.[ { ] ' _ ( / / ( _ ' ] { [ Q.Q.Q.Q.Q.Q.Q.Q.Q.",
"Q.Q.Q.Q.Q.Q.Q.` ` ) ~ R K F Z V V Z F K R ~ ) ` ` Q.Q.Q.Q.Q.Q.Q.",
"Q.Q.Q.Q.Q.Q.) / Q L Z K ..-.6.w.w.6.-...K Z L Q / ) Q.Q.Q.Q.Q.Q.",
"Q.Q.Q.Q.Q.^ Q I Z I ;.y.f.z.v.n.b.x.h.a.t.;.I Z I Q ^ Q.Q.Q.Q.Q.",
"Q.Q.Q.Q.! E J N o.y.l.B.C.A.S.D.S.Z.V.M.c.f.r.o.N J E ! Q.Q.Q.Q.",
"Q.Q.Q.W T G N :.s.B.A.F.H.J.L.L.L.K.H.F.Z.M.l.i.:.N G T W Q.Q.Q.",
"Q.Q.T Y H n ;.g.C.F.J.L.U.Y.T.T.T.Y.U.P.J.D.B.x.p.;.n H Y T Q.Q.",
"Q.Q.U J n X.s.Z.G.K.I.T.R.E.E.9.E.E.R.T.Y.L.G.V.x.i.X.n J U Q.Q.",
"Q.P K C H y.C.G.L.U.R.E.E.W.8.[ W.W.W.E.R.Y.P.G.B.k.r.H C K P Q.",
"Q.K D l =.c.F.K.U.R.E.E.W.6.Q ~ W.W.W.W.E.2.Y.L.D.m.d.=.l D K Q.",
"Q.G B C u.A.H.I.T.E.E.W.5.I K I W.W.W.W.,.C R.Y.H.C.z.r.C B G Q.",
"F S c } g.F.K.Y.R.E.W.7.I S Z F W.W.W.;.s h E.T.P.D.n.p.} c S F ",
"S C h %.f.V.L.T.E.W.0.~ F n v B W.W.>.r 6 q W.R.U.G.N.f.%.h C S ",
"A N a 5.j.V.H.Y.E.e.| R V g f v W.3.j 4 : 3 W.E.Y.H.V.j.5.a N A ",
"Z m u w.k.C.J.T.1.C b h t 7 r k 8.J y = + - W.E.T.J.C.k.w.u m Z ",
"V n y w.k.C.J.T.1.M r , @   o - 1.h 2 O . & W.E.T.J.C.k.w.y n V ",
"B b u 4.j.V.H.Y.E.,.y 1 # X @ : W.-.4 $ @ : W.E.Y.H.V.j.4.u b B ",
"N b p #.f.N.G.U.R.W.%.3 * # % 1 W.W.+.> - 3 W.R.U.G.N.f.#.p b N ",
"m b d ] p.n.D.P.T.E.W.+.< ; > 5 W.W.W.O.5 e E.T.P.D.n.p.] d b m ",
"Q.b h c r.z.C.H.Y.R.E.W.O.4 5 e W.W.W.W.*.z R.Y.H.C.z.r.c h b Q.",
"Q.v l r %.d.m.D.L.Y.E.E.W.#.t h W.W.W.W.E.<.Y.L.D.m.d.%.r l v Q.",
"Q.c z s M r.k.B.G.P.Y.R.E.W.:.M W.W.W.E.R.Y.P.G.B.k.r.M s z c Q.",
"Q.Q.x j e ..i.x.V.G.L.Y.T.R.E.1.E.E.R.T.Y.L.G.V.x.i...e j x Q.Q.",
"Q.Q.x l d e &.p.x.B.D.H.P.U.Y.T.T.Y.U.P.H.D.B.x.p.&.e d l x Q.Q.",
"Q.Q.Q.z k a y &.i.k.m.C.D.G.H.J.J.H.G.D.C.m.k.i.&.y a k z Q.Q.Q.",
"Q.Q.Q.Q.l j a w  .r.d.z.n.N.V.C.C.V.N.n.z.d.r. .w a j l Q.Q.Q.Q.",
"Q.Q.Q.Q.Q.l j s w m $.r.p.f.j.k.k.j.f.p.r.$.m w s j l Q.Q.Q.Q.Q.",
"Q.Q.Q.Q.Q.Q.l k f i 0 k ` @.4.q.q.4.@.` k 0 i f k l Q.Q.Q.Q.Q.Q.",
"Q.Q.Q.Q.Q.Q.Q.k k h f p t q 9 8 8 9 q t p f h k k Q.Q.Q.Q.Q.Q.Q.",
"Q.Q.Q.Q.Q.Q.Q.Q.Q.k k j h g d d d d g h j k k Q.Q.Q.Q.Q.Q.Q.Q.Q.",
"Q.Q.Q.Q.Q.Q.Q.Q.Q.Q.Q.Q.j j j j j j j j Q.Q.Q.Q.Q.Q.Q.Q.Q.Q.Q.Q."
};
