/* XPM */
static char *stop_xpm[] = {
/* columns rows colors chars-per-pixel */
"32 32 157 2",
"   c gray4",
".  c gray8",
"X  c #151515",
"o  c #1B1B1B",
"O  c #202020",
"+  c gray13",
"@  c #252525",
"#  c gray15",
"$  c #2C2C2C",
"%  c #2D2D2D",
"&  c gray18",
"*  c gray19",
"=  c #323232",
"-  c #343434",
";  c gray21",
":  c #373737",
">  c gray22",
",  c #393939",
"<  c #3A3A3A",
"1  c #3C3C3C",
"2  c gray24",
"3  c #3F3F3F",
"4  c gray25",
"5  c #414141",
"6  c gray26",
"7  c #434343",
"8  c #444444",
"9  c gray27",
"0  c #464646",
"q  c gray28",
"w  c #484848",
"e  c #494949",
"r  c gray29",
"t  c #4B4B4B",
"y  c #4C4C4C",
"u  c gray30",
"i  c #4E4E4E",
"p  c gray31",
"a  c #505050",
"s  c #515151",
"d  c gray32",
"f  c #535353",
"g  c gray33",
"h  c #555555",
"j  c #565656",
"k  c gray34",
"l  c #585858",
"z  c gray35",
"x  c #5A5A5A",
"c  c #5B5B5B",
"v  c gray36",
"b  c #5D5D5D",
"n  c gray37",
"m  c #5F5F5F",
"M  c #606060",
"N  c gray38",
"B  c #626262",
"V  c gray39",
"C  c #656565",
"Z  c gray40",
"A  c #676767",
"S  c #686868",
"D  c DimGray",
"F  c #6A6A6A",
"G  c #6C6C6C",
"H  c #6D6D6D",
"J  c gray43",
"K  c #6F6F6F",
"L  c gray44",
"P  c #717171",
"I  c #727272",
"U  c gray45",
"Y  c #747474",
"T  c gray46",
"R  c #767676",
"E  c #777777",
"W  c gray47",
"Q  c #797979",
"!  c gray48",
"~  c #7B7B7B",
"^  c #7C7C7C",
"/  c gray49",
"(  c #7E7E7E",
")  c #7F7F7F",
"_  c #808080",
"`  c #818181",
"'  c gray51",
"]  c #848484",
"[  c gray53",
"{  c #888888",
"}  c gray54",
"|  c #8B8B8B",
" . c gray56",
".. c #909090",
"X. c gray57",
"o. c #939393",
"O. c #989898",
"+. c #A0A0A0",
"@. c gray63",
"#. c #A2A2A2",
"$. c gray64",
"%. c #A4A4A4",
"&. c gray65",
"*. c #A7A7A7",
"=. c gray66",
"-. c #A9A9A9",
";. c gray72",
":. c #B9B9B9",
">. c gray73",
",. c #C3C3C3",
"<. c gray77",
"1. c #CBCBCB",
"2. c gray80",
"3. c #CDCDCD",
"4. c #CECECE",
"5. c #D2D2D2",
"6. c gray83",
"7. c #D5D5D5",
"8. c #D7D7D7",
"9. c #D8D8D8",
"0. c gray85",
"q. c #DADADA",
"w. c gainsboro",
"e. c #DDDDDD",
"r. c gray87",
"t. c #DFDFDF",
"y. c gray88",
"u. c #E1E1E1",
"i. c #E2E2E2",
"p. c gray89",
"a. c #E4E4E4",
"s. c gray90",
"d. c #E6E6E6",
"f. c #E7E7E7",
"g. c gray91",
"h. c #E9E9E9",
"j. c gray92",
"k. c #ECECEC",
"l. c gray93",
"z. c #EEEEEE",
"x. c #EFEFEF",
"c. c gray94",
"v. c #F1F1F1",
"b. c gray95",
"n. c #F4F4F4",
"m. c gray96",
"M. c #F6F6F6",
"N. c gray97",
"B. c #F8F8F8",
"V. c #F9F9F9",
"C. c gray98",
"Z. c #FBFBFB",
"A. c gray99",
"S. c #FDFDFD",
"D. c #FEFEFE",
"F. c gray100",
"G. c None",
/* pixels */
"G.G.G.G.G.G.G.G.G.G.G.G.] ] ] ] ] ] ] ] G.G.G.G.G.G.G.G.G.G.G.G.",
"G.G.G.G.G.G.G.G.G.` ' _ ) / ~ ! ! ~ / ) _ ' ` G.G.G.G.G.G.G.G.G.",
"G.G.G.G.G.G.G.( ( ^ W U G A B M M B A G U W ^ ( ( G.G.G.G.G.G.G.",
"G.G.G.G.G.G.^ ! R H B G | *.>.<.<.>.*.| G B H R ! ^ G.G.G.G.G.G.",
"G.G.G.G.G.Q R K B K =.3.0.y.p.s.a.u.w.7.2.=.K B K R Q G.G.G.G.G.",
"G.G.G.G.E Y F n o.3.t.h.k.z.x.c.x.l.j.f.i.0.1.o.n F Y E G.G.G.G.",
"G.G.G.T I S n -.8.h.z.v.n.m.N.N.N.M.n.v.l.f.t.5.-.n S I T G.G.G.",
"G.G.I P D c =.q.k.v.m.N.C.Z.A.A.A.Z.C.B.m.c.h.u.6.=.c D P I G.G.",
"G.G.L F c X.8.l.b.M.V.A.S.D.D.D.D.D.S.A.Z.N.b.j.u.5.X.c F L G.G.",
"G.J G N D 3.k.b.N.C.S.D.D.F.F.F.F.F.F.D.S.Z.B.b.h.r.1.D N G J G.",
"G.G Z h &.i.v.M.C.S.O...[ _ Q Y L K K P Y E Z.N.c.d.9.&.h Z G G.",
"G.S m N 4.z.n.V.A.D.o.[ / U F V b c x c n B S.Z.n.k.y.1.N m S G.",
"A C l ] q.v.M.Z.S.D. .` T F M l d a a d h c D.A.B.c.s.6.] l C A ",
"C N d $.0.j.N.A.D.F.| ^ K B k u q 9 0 e i h F.S.C.b.g.0.$.d N C ",
"V n u :.e.j.n.Z.D.F.{ W F v i 7 2 1 3 7 e a F.D.Z.n.j.e.:.u n V ",
"B v r <.r.k.m.A.D.F.n x k p 9 , = - ; < 4 e F.D.A.m.k.r.<.r v B ",
"M c e <.r.k.m.A.D.F.u , $ O .     . O $ , q F.D.A.m.k.r.<.e c M ",
"m x r ;.e.j.n.Z.D.F.s 1 * @ o X X o @ * 1 e F.D.Z.n.j.e.;.r x m ",
"n x y @.0.g.b.C.S.F.k 6 : % # + + # % : 6 i F.S.C.b.g.0.@.y x n ",
"v x p _ 6.s.c.B.A.D.n r 4 > = & & = > 4 r h D.A.B.c.s.6._ p x v ",
"G.x d l 1.y.k.n.Z.S.A f r 8 3 1 1 3 8 r f b S.Z.n.k.y.1.l d x G.",
"G.z h q $.9.d.c.N.Z.K b j a y r r u s k m Z Z.N.c.d.9.$.q h z G.",
"G.l j i b 1.r.h.b.B.Z.S.D.F.F.F.F.F.F.D.S.Z.B.b.h.r.1.b i j l G.",
"G.G.k f 0 | 5.u.j.b.N.Z.A.S.D.D.D.D.S.A.Z.N.b.j.u.5.| 0 f k G.G.",
"G.G.k h p 0 %.6.u.h.c.n.B.C.Z.A.A.Z.C.B.n.c.h.u.6.%.0 p h k G.G.",
"G.G.G.j g u e %.5.r.d.k.c.b.n.m.m.n.b.c.k.d.r.5.%.e u g j G.G.G.",
"G.G.G.G.h f u 9 } 1.9.y.s.g.j.k.k.j.g.s.y.9.1.} 9 u f h G.G.G.G.",
"G.G.G.G.G.h f i 9 v #.1.6.0.e.r.r.e.0.6.1.#.v 9 i f h G.G.G.G.G.",
"G.G.G.G.G.G.h g a t 7 g ( +.;.,.,.;.+.( g 7 t a g h G.G.G.G.G.G.",
"G.G.G.G.G.G.G.g g d a y w 8 5 4 4 5 8 w y a d g g G.G.G.G.G.G.G.",
"G.G.G.G.G.G.G.G.G.g g f d s p p p p s d f g g G.G.G.G.G.G.G.G.G.",
"G.G.G.G.G.G.G.G.G.G.G.G.f f f f f f f f G.G.G.G.G.G.G.G.G.G.G.G."
};
