/* XPM */
#ifndef __VERA_XPM__
#define __VERA_XPM__


static char *vera_xpm[] = {
/* columns rows colors chars-per-pixel */
"64 64 210 2",
"   c #020202",
".  c #040404",
"X  c gray2",
"o  c #060606",
"O  c #070707",
"+  c gray3",
"@  c #090909",
"#  c gray4",
"$  c #0B0B0B",
"%  c #0C0C0C",
"&  c gray5",
"*  c #0E0E0E",
"=  c gray6",
"-  c #101010",
";  c #111111",
":  c gray7",
">  c #131313",
",  c gray8",
"<  c #151515",
"1  c #161616",
"2  c gray9",
"3  c #181818",
"4  c #191919",
"5  c gray10",
"6  c #1B1B1B",
"7  c gray11",
"8  c #1D1D1D",
"9  c gray12",
"0  c #202020",
"q  c gray13",
"w  c #222222",
"e  c #232323",
"r  c gray14",
"t  c #252525",
"y  c gray15",
"u  c #272727",
"i  c #282828",
"p  c gray16",
"a  c #2C2C2C",
"s  c #2D2D2D",
"d  c gray18",
"f  c #2F2F2F",
"g  c gray19",
"h  c #323232",
"j  c gray20",
"k  c #353535",
"l  c gray21",
"z  c #373737",
"x  c #393939",
"c  c #3A3A3A",
"v  c gray23",
"b  c #3C3C3C",
"n  c gray24",
"m  c #3E3E3E",
"M  c #3F3F3F",
"N  c gray25",
"B  c #414141",
"V  c gray26",
"C  c #434343",
"Z  c #464646",
"A  c gray28",
"S  c #484848",
"D  c #494949",
"F  c gray29",
"G  c #4B4B4B",
"H  c gray30",
"J  c #4E4E4E",
"K  c #505050",
"L  c #535353",
"P  c #565656",
"I  c gray35",
"U  c #5A5A5A",
"Y  c #5B5B5B",
"T  c gray36",
"R  c #5D5D5D",
"E  c gray37",
"W  c #606060",
"Q  c gray38",
"!  c #626262",
"~  c gray39",
"^  c #646464",
"/  c gray40",
"(  c #676767",
")  c #686868",
"_  c DimGray",
"`  c #6A6A6A",
"'  c gray42",
"]  c #6D6D6D",
"[  c gray43",
"{  c #6F6F6F",
"}  c gray44",
"|  c #717171",
" . c #727272",
".. c gray45",
"X. c #747474",
"o. c gray46",
"O. c #767676",
"+. c #777777",
"@. c gray47",
"#. c #797979",
"$. c gray48",
"%. c #7C7C7C",
"&. c #7E7E7E",
"*. c #7F7F7F",
"=. c #808080",
"-. c #818181",
";. c gray51",
":. c #848484",
">. c gray52",
",. c gray53",
"<. c #888888",
"1. c #898989",
"2. c gray54",
"3. c gray55",
"4. c #8E8E8E",
"5. c gray56",
"6. c #909090",
"7. c gray57",
"8. c #929292",
"9. c #959595",
"0. c gray59",
"q. c #979797",
"w. c #989898",
"e. c gray60",
"r. c #9A9A9A",
"t. c #9B9B9B",
"y. c gray61",
"u. c #9D9D9D",
"i. c gray62",
"p. c #9F9F9F",
"a. c #A0A0A0",
"s. c gray63",
"d. c #A2A2A2",
"f. c gray64",
"g. c #A4A4A4",
"h. c #A5A5A5",
"j. c gray65",
"k. c #A7A7A7",
"l. c gray66",
"z. c #AAAAAA",
"x. c #AEAEAE",
"c. c #AFAFAF",
"v. c gray69",
"b. c #B1B1B1",
"n. c #B2B2B2",
"m. c #B4B4B4",
"M. c #B6B6B6",
"N. c gray72",
"B. c #B9B9B9",
"V. c gray73",
"C. c #BCBCBC",
"Z. c gray74",
"A. c gray",
"S. c gray75",
"D. c #C0C0C0",
"F. c #C1C1C1",
"G. c gray76",
"H. c #C3C3C3",
"J. c gray77",
"K. c #C5C5C5",
"L. c #C6C6C6",
"P. c gray78",
"I. c #C8C8C8",
"U. c gray79",
"Y. c #CDCDCD",
"T. c #CECECE",
"R. c gray81",
"E. c #D0D0D0",
"W. c #D2D2D2",
"Q. c LightGray",
"!. c gray83",
"~. c gray84",
"^. c #D7D7D7",
"/. c #DADADA",
"(. c gray86",
"). c gainsboro",
"_. c #DDDDDD",
"`. c gray87",
"'. c #DFDFDF",
"]. c gray88",
"[. c #E1E1E1",
"{. c #E2E2E2",
"}. c gray89",
"|. c #E4E4E4",
" X c gray90",
".X c #E6E6E6",
"XX c #E7E7E7",
"oX c gray91",
"OX c #E9E9E9",
"+X c #EAEAEA",
"@X c gray92",
"#X c #ECECEC",
"$X c gray93",
"%X c #EEEEEE",
"&X c #EFEFEF",
"*X c #F1F1F1",
"=X c gray95",
"-X c #F3F3F3",
";X c #F4F4F4",
":X c gray96",
">X c #F6F6F6",
",X c gray97",
"<X c #F8F8F8",
"1X c #F9F9F9",
"2X c gray98",
"3X c #FBFBFB",
"4X c gray99",
"5X c #FDFDFD",
"6X c #FEFEFE",
"7X c None",
/* pixels */
"7X7X7X7X7X7X7X7X7X7X7X7X7X7X7X7X7X7X7X7X7X7X7X7X7X7X7X7X7X7X7X7X7X7X7X7X7X7X7X7X7X7X7X7X7X7X7X7X7X7X7X7X7X7X7X7X7X7X7X7X7X7X7X7X",
"7X7X7X7X7X7X7X7X7X7X7X7X7X7X7X7X7X7X7X7X7X7X7X7X7X7X7X7X7X7X7X7X7X7X7X7X7X7X7X7X7X7X7X7X7X7X7X7X7X7X7X7X7X7X7X7X7X7X7X7X7X7X7X7X",
"7X7X7X7X7X7X7X7X7X7X7X7X7X7X7X7X7X7X7X7X7X7X7X7X7X7X7X7X7X7X7X7X7X7X7X7X7X7X7X7X7X7X7X7X7X7X7X7X7X7X7X7X7X7X7X7X7X7X7X7X7X7X7X7X",
"7X7X7X7X7X7X7X7X7X7X7X7X7X7X7X7X7X7X7X7X7X7X7X7X7X7X7X7X7X7X7X7X7X7X7X7X7X7X7X7X7X7X7X7X7X7X7X7X7X7X7X7X7X7X7X7X7X7X7X7X7X7X7X7X",
"7X7X7X7X7X7X7X7X7X7X7X7X7X7X7X7X7X7X7X7X7X7X7X7X7X7X7X7X7X7X7X7X7X7X7X7X7X7X7X7X7X7X7X7X7X7X7X7X7X7X7X7X7X7X7X7X7X7X7X7X7X7X7X7X",
"7X7X7X7X7X7X7X7X7X7X7X7X7X7X7X7X7X7X7X7X7X7X7X7X7X7X7X7X7X7X7X7X7X7X7X7X7X7X7X7X7X7X7X7X7X7X7X7X7X7X7X7X7X7X7X7X7X7X7X7X7X7X7X7X",
"7X7X7X7X7X7X7X7X7X7X7X7X7X7X7X7X7X7X7X7X7X7X7X7X7X7X7X7X7X7X7X7X7X7X7X7X7X7X7X7X7X7X7X7X7X7X7X7X7X7X7X7X7X7X7X7X7X7X7X7X7X7X7X7X",
"7X7X7X7X7X7X7X7X7X7X7X7X7X7X7X7X7X7X7X7X7X7X7X7X7X7X7X7X7X7X7X7X7X7X7X7X7X7X7X7X7X7X7X7X7X7X7X7X7X7X7X7X7X7X7X7X7X7X7X7X7X7X7X7X",
"7X7X7X7X7X7X7X7X7X7X7X7X7X7X7X7X7X7X7X7X7X7X7X7X7X7X7X7X7X7X7X7X7X7X7X7X7X7X7X7X7X7X7X7X7X7X7X7X7X7X7X7X7X7X7X7X7X7X7X7X7X7X7X7X",
"7X7X7X7X7X7X7X7X7X7X7X7X7X7X7X7X7X7X7X7X7X7X7X7X7X7X7X7X7X7X7X7X7X7X7X7X7X7X7X7X7X7X7X7X7X7X7X7X7X7X7X7X7X7X7X7X7X7X7X7X7X7X7X7X",
"v b v v b b v v v v v v b v v b b v v v v v v v b b m N A m b v b v v c v v v v v v v b v b c b v N S C b v b b b v b b b b v c ",
"O + + + + + + + + + + + + + + + + + + + + + + + + + # $ P Z u 6 ; @ X O + + + + + + + + + o $ : q c ! z @ + + + + + + + + + + + ",
"O O O O O O O O O O O O O O O O O O O O O O O O O O @ O f i.`.V.q.[ S 9 $ % % % % % % = p P ;.l.T.E.! > # O O O O O O O O O O + ",
"+ + + + O + O + + + + + + + + O + + + + + + + + + + + + # > =.;X4X1X*X XR.I.U.U.U.U.U.W.@X>X2X4X^.b # @ + + + + + O + O + + + + ",
"+ @ + @ @ @ @ @ + @ @ @ @ @ @ @ @ @ + @ + + @ @ @ + + + + + o :.5X3X4X3X4X6X6X6X6X6X6X6X4X4X3X~.b # + + @ + + @ + @ @ @ + + + + ",
"+ + + @ @ @ + @ @ @ @ @ @ @ + + @ @ + + @ @ @ + @ + + + @ O # [ 6X4X5X5X6X6X6X6X6X6X6X5X5X3X5Xw.o @ @ @ @ @ @ @ + + + @ + + + + ",
"+ @ @ @ @ + + @ + @ @ @ @ + @ @ @ + + @ + + @ @ @ @ @ @ + + + | -Xi.6X5X3X6X6X6X6X6X6X3X4XC.$X9.O + @ + + @ @ @ + + @ @ @ + @ + ",
"+ @ @ @ @ @ + @ @ @ @ @ @ @ @ @ @ @ + + @ @ @ + @ @ @ @ @ + o ] $XV @X:X2X5X5X5X5X6X4X-X_.e. Xe.o @ @ @ @ @ @ @ @ + @ @ @ + + + ",
"+ @ @ + + @ + @ @ @ @ @ @ @ @ @ @ @ + + @ @ @ @ @ @ @ + @ @ + { $XZ i.c.2X4X5X5X3X3X,X6.7.y.|.e.X @ @ @ @ @ @ @ + @ @ @ @ + + + ",
"+ + @ @ @ + + @ @ + @ @ @ @ @ @ + @ @ @ @ @ @ @ + @ @ + @ @ + { $XC <.A >X3X5X5X3X3X].P 1.t.|.e.X @ @ @ @ @ + @ @ + + @ @ @ + + ",
"+ @ @ @ @ @ + @ @ @ @ + @ + @ @ @ @ @ @ @ @ @ + @ @ @ @ @ + + } $XA G.h.a.XX4X4X5X#X3.u.G.e.}.e.X @ + @ + @ @ @ @ + @ @ @ @ @ + ",
"+ @ @ @ @ @ + @ @ @ @ @ @ @ @ @ @ @ @ @ @ @ @ @ @ @ @ @ @ + @ | #Xb u.B. X,X<X5X4X1XOXM.+.#.}.e.o O @ @ @ @ @ @ @ + @ @ @ @ @ + ",
"+ @ @ @ + @ + @ @ @ @ @ @ @ @ + @ @ @ @ @ @ @ @ @ @ + @ @ @ @ { =X2. X>X).` K |.+.$.{.1X=Xc.$Xe.o O @ @ @ @ @ @ @ + @ + @ @ @ + ",
"+ + + + @ + + @ @ @ @ + @ @ @ @ @ @ @ @ @ @ @ + @ @ + + + + o { 5X2X~.%.t # # H 7 # d ,.{.3X4Xe.o O + @ + @ @ @ @ + + @ @ + @ + ",
"+ + + + @ + + @ @ + @ @ + @ @ + @ @ @ @ @ @ @ @ + + O O @ O +  .>X2.u $ % + @ + + X $ * y e.;X6.o $ @ O # + + @ @ + + @ @ + @ + ",
"+ @ @ @ @ + @ @ @ @ @ @ @ @ @ @ @ + + @ @ @ @ @ @ @ + + i ) ` s.r.' [ [ ] ' ' ' ] { r + # w i.A.W 8 + # @ + @ @ + @ @ @ @ + + + ",
"+ @ @ @ @ + + @ @ @ @ + @ @ @ @ + @ + @ @ @ @ + @ + @ = n.1X2X3X3X3X3X3X3X3X3X3X4X,Xz.4 o 6 i.5X<Xk.; @ O @ @ @ + + + @ @ + + + ",
"+ @ @ @ @ + + @ + @ @ @ @ @ @ @ @ @ @ @ @ @ + @ + O O 5.4X5X6X6X5X6X6X6X6X6X6X6X6X2X=X_   @ ; L.3X2Xt.$ + @ @ + @ + + @ @ @ @ + ",
"+ + + + + @ + + + @ @ @ @ @ + + + @ + + + + + + # % J &X5X5X6X6X6X6X6X6X6X6X6X6X5X4X1Xk.@ @ +  .,X,X=.$ + O @ @ @ @ + + @ + + + ",
"+ + + + + + + + + + @ + + + + + + + + + + + + + o 6 K.3X4X5X6X6X6X6X6X6X6X6X6X6X4X4X_.B $ O G #X2Xs.- $ + @ + + @ + + + @ + + + ",
"+ + @ + @ @ + @ + + @ + + @ @ @ + + + + + + @ O + 7.5X4X2X6X6X6X6X6X6X6X6X6X6X6X5X4X-.O o q U.1XR.e + # O @ + + + + @ @ @ + + + ",
"+ @ @ + + @ + @ @ @ @ @ @ + @ @ @ @ + + @ + # O R <X3X6X6X6X6X6X6X6X6X6X6X6X6X6X4Xx.- # @ 3.1X=XR $ + + @ @ @ @ + + @ @ @ + + + ",
"+ @ @ @ @ @ @ @ @ @ @ @ @ @ @ @ @ @ @ @ @ + % j ).3X5X6X6X6X6X6X6X6X6X6X6X6X6X6XE.w # @ P =X5X,.= + + @ @ @ @ @ @ @ @ @ @ @ @ + ",
"+ @ + @ @ @ + @ @ @ @ + + @ @ @ @ @ @ @ + = # k.2X1X6X6X6X6X6X6X6X6X6X6X6X6X6X*XU % + g =X5XA.% O @ @ + + @ @ @ @ + @ @ @ + @ + ",
"+ @ @ @ @ @ + @ @ @ @ @ @ @ @ @ + @ @ @ + O ' <X4X5X4X5X5X6X6X2X2X6X6X6X6X4X5Xr.; o 8 v.2X^.z @ @ + @ @ @ @ @ @ @ + @ @ @ @ @ + ",
"+ @ @ @ @ @ + @ @ @ @ @ @ @ @ @ @ @ @ + @ V -X6X5X6X6X2X XA.%.H K.6X6X6X5X3XR.5 # O +.;X4X( % @ @ @ @ @ @ @ @ @ @ + @ @ @ @ @ + ",
"+ + @ @ + + + @ @ @ @ @ @ @ @ @ @ + + + 2 B.[.W.U.g.) F D =.U..X2X6X6X6X6X Xk o + N *X2Xs.& @ + + @ @ @ @ @ @ @ + + @ @ + + + + ",
"+ @ @ + + @ + @ + @ @ @ @ @ @ + O # @ + g | %.4.9.m.Q.$XoXY.h.8.'.6X5X4X,X%.& + s !.3XZ.: @ + + + @ @ + + @ @ @ + + @ + + + + + ",
"+ + + + + @ + @ + @ @ + + @ @ + $ o @ j {.#X-X=X[.S.X.x S o.J.[.;X6X5X5XK.1 . , p.<X}.N % X @ + + + @ + + @ @ @ @ + @ + + + @ + ",
"+ @ @ @ @ + @ @ @ @ @ @ @ @ @ @ + @ - M.n.y.' I I -.H. X&X].R.F.#X5X1X`.i O = ! *X,X&.% + # + @ + + @ @ @ @ @ @ @ @ @ @ @ + @ + ",
"+ @ @ + + + + @ + @ @ @ @ + O + . - G 7.d.N.Q. X{.H.q...O.-.e.b.+X6X$XY @ + c |.2Xj.> + O @ + + + + + + + @ @ @ @ + @ + + + @ + ",
"+ @ @ + + @ + @ + + @ + + + + o - T ,X,X(.n.! h l ( C..X<X2X1X5X5X2Xt.; + 8 T.3XP., @ @ + @ @ + + @ @ + + @ + + + + @ @ + + + + ",
"+ + + @ + + + @ + + @ + + O O # # +.@./  .9.P.XX3X6X5X5X4X4X4X3X4X^.a + = 1.>XXXL & O + + + @ + + + + + + @ + + + + + + + + + + ",
"+ + + + + @ + + + @ @ @ @ $ + 3 f.U./.%X5X6X4X5X5X6X5X6X6X5X6X3X#Xn O + H OX2X>.* + @ + @ + @ + + + + + + @ @ @ @ @ + + @ + + + ",
"+ @ @ @ @ + + + + @ @ @ + o % *.3X6X6X6X6X6X6X6X6X6X6X6X6X6X5X<X#.o + 0 +X3XC.# + + @ @ @ @ @ @ + + + + + @ @ + @ + + @ @ + + + ",
"+ @ @ @ @ + + @ @ @ @ + + @ M '.6X6X6X6X6X6X6X6X6X6X6X6X6X6X<Xn.8 O 8 v.4XW.d + + @ @ @ @ @ @ + @ @ @ @ + @ @ @ @ + + @ @ @ @ + ",
"+ + + + + + + + + @ @ @ + ; U.2X5X6X6X6X6X6X6X6X6X6X6X6X6X6X1X0./ ^ q.:X-XQ # + O + @ + + + + + + + + + + @ @ @ + + + + + + + + ",
"+ @ + @ + + + @ @ @ + + $ t.6X6X6X6X6X6X6X6X6X6X6X6X6X6X6X6X6X6X6X4X5X3Xs.$ + O @ @ @ @ @ + + @ + @ @ + @ @ + @ @ + + @ @ + @ + ",
"+ @ + @ + + + @ @ + # + Y &X5X6X6X6X6X6X6X6X6X6X6X6X6X6X6X6X6X6X6X4X4XD.3 O @ + + @ @ @ @ + + + + @ @ @ + @ @ @ + + + @ @ + @ + ",
"+ + + + + @ + @ @ @ O 8 R.5X6X6X6X6X6X6X6X6X6X6X6X6X6X6X6X6X6X6X6X6X(.x o + + + @ @ @ @ + + + @ + @ @ @ @ @ @ @ + + @ + @ @ @ + ",
"+ @ @ @ @ @ + @ @ @ = d.3X6X6X5X6X6X6X6X6X6X6X6X6X6X6X6X6X6X5X6X6X<XX.% $ + @ @ @ @ @ @ @ @ @ @ @ @ @ @ @ @ @ @ @ + @ @ @ + @ + ",
"+ @ @ @ @ @ + @ $ @ ..,X5X6X6X6X6X6X6X6X6X6X6X6X6X6X6X6X6X6X4X3X2Xx.< @ O + @ @ + @ @ @ @ @ @ @ @ @ + @ + @ @ @ @ + @ @ @ @ @ + ",
"+ + @ @ @ + @ O # V {.<X5X5X5X5X5X5X5X5X5X5X5X5X5X5X5X5X5X4X4X4XY.: % o @ @ @ + @ @ @ @ @ @ @ + @ @ @ @ @ @ + @ @ + + @ @ @ + + ",
"+ + + + + + O O % N W W E ~ ~ ~ ~ ~ ~ ~ ~ ~ ~ ~ ~ ~ ~ ~ ~ ! / W g + @ + + + + + + + + + + + + + + + + + + + + + + + + + + + + O ",
"7X7X7X7X7X7X7X7X7X7X7X7X7X7X7X7X7X7X7X7X7X7X7X7X7X7X7X7X7X7X7X7X7X7X7X7X7X7X7X7X7X7X7X7X7X7X7X7X7X7X7X7X7X7X7X7X7X7X7X7X7X7X7X7X",
"7X7X7X7X7X7X7X7X7X7X7X7X7X7X7X7X7X7X7X7X7X7X7X7X7X7X7X7X7X7X7X7X7X7X7X7X7X7X7X7X7X7X7X7X7X7X7X7X7X7X7X7X7X7X7X7X7X7X7X7X7X7X7X7X",
"7X7X7X7X7X7X7X7X7X7X7X7X7X7X7X7X7X7X7X7X7X7X7X7X7X7X7X7X7X7X7X7X7X7X7X7X7X7X7X7X7X7X7X7X7X7X7X7X7X7X7X7X7X7X7X7X7X7X7X7X7X7X7X7X",
"7X7X7X7X7X7X7X7X7X7X7X7X7X7X7X7X7X7X7X7X7X7X7X7X7X7X7X7X7X7X7X7X7X7X7X7X7X7X7X7X7X7X7X7X7X7X7X7X7X7X7X7X7X7X7X7X7X7X7X7X7X7X7X7X",
"7X7X7X7X7X7X7X7X7X7X7X7X7X7X7X7X7X7X7X7X7X7X7X7X7X7X7X7X7X7X7X7X7X7X7X7X7X7X7X7X7X7X7X7X7X7X7X7X7X7X7X7X7X7X7X7X7X7X7X7X7X7X7X7X",
"7X7X7X7X7X7X7X7X7X7X7X7X7X7X7X7X7X7X7X7X7X7X7X7X7X7X7X7X7X7X7X7X7X7X7X7X7X7X7X7X7X7X7X7X7X7X7X7X7X7X7X7X7X7X7X7X7X7X7X7X7X7X7X7X",
"7X7X7X7X7X7X7X7X7X7X7X7X7X7X7X7X7X7X7X7X7X7X7X7X7X7X7X7X7X7X7X7X7X7X7X7X7X7X7X7X7X7X7X7X7X7X7X7X7X7X7X7X7X7X7X7X7X7X7X7X7X7X7X7X",
"7X7X7X7X7X7X7X7X7X7X7X7X7X7X7X7X7X7X7X7X7X7X7X7X7X7X7X7X7X7X7X7X7X7X7X7X7X7X7X7X7X7X7X7X7X7X7X7X7X7X7X7X7X7X7X7X7X7X7X7X7X7X7X7X",
"7X7X7X7X7X7X7X7X7X7X7X7X7X7X7X7X7X7X7X7X7X7X7X7X7X7X7X7X7X7X7X7X7X7X7X7X7X7X7X7X7X7X7X7X7X7X7X7X7X7X7X7X7X7X7X7X7X7X7X7X7X7X7X7X",
"7X7X7X7X7X7X7X7X7X7X7X7X7X7X7X7X7X7X7X7X7X7X7X7X7X7X7X7X7X7X7X7X7X7X7X7X7X7X7X7X7X7X7X7X7X7X7X7X7X7X7X7X7X7X7X7X7X7X7X7X7X7X7X7X"
};
#endif
