/* XPM */
static char * vera_med_xpm[] = {
"32 32 122 2",
"  	c None",
". 	c #232323",
"+ 	c #222222",
"@ 	c #242424",
"# 	c #4A4A4A",
"$ 	c #1E1E1E",
"% 	c #1F1F1F",
"& 	c #1D1D1D",
"* 	c #2A2A2A",
"= 	c #4D4D4D",
"- 	c #212121",
"; 	c #070707",
"> 	c #060606",
", 	c #373737",
"' 	c #DCDCDC",
") 	c #C5C5C5",
"! 	c #909090",
"~ 	c #676767",
"{ 	c #696969",
"] 	c #9A9A9A",
"^ 	c #D2D2D2",
"/ 	c #C3C3C3",
"( 	c #1B1B1B",
"_ 	c #080808",
": 	c #090909",
"< 	c #2F2F2F",
"[ 	c #FFFFFF",
"} 	c #FCFCFC",
"| 	c #FEFEFE",
"1 	c #E2E2E2",
"2 	c #040404",
"3 	c #323232",
"4 	c #ABABAB",
"5 	c #FBFBFB",
"6 	c #FDFDFD",
"7 	c #C6C6C6",
"8 	c #CCCCCC",
"9 	c #000000",
"0 	c #333333",
"a 	c #9C9C9C",
"b 	c #797979",
"c 	c #A9A9A9",
"d 	c #8D8D8D",
"e 	c #343434",
"f 	c #959595",
"g 	c #B6B6B6",
"h 	c #DADADA",
"i 	c #ACACAC",
"j 	c #888888",
"k 	c #E9E9E9",
"l 	c #DEDEDE",
"m 	c #565656",
"n 	c #636363",
"o 	c #EFEFEF",
"p 	c #9D9D9D",
"q 	c #2E2E2E",
"r 	c #313131",
"s 	c #2B2B2B",
"t 	c #C4C4C4",
"u 	c #131313",
"v 	c #1C1C1C",
"w 	c #8B8B8B",
"x 	c #020202",
"y 	c #A4A4A4",
"z 	c #F7F7F7",
"A 	c #292929",
"B 	c #CACACA",
"C 	c #BCBCBC",
"D 	c #616161",
"E 	c #F5F5F5",
"F 	c #202020",
"G 	c #7A7A7A",
"H 	c #F8F8F8",
"I 	c #1A1A1A",
"J 	c #0A0A0A",
"K 	c #4C4C4C",
"L 	c #DFDFDF",
"M 	c #969696",
"N 	c #030303",
"O 	c #E6E6E6",
"P 	c #F0F0F0",
"Q 	c #A2A2A2",
"R 	c #F1F1F1",
"S 	c #A6A6A6",
"T 	c #050505",
"U 	c #575757",
"V 	c #A7A7A7",
"W 	c #9F9F9F",
"X 	c #BBBBBB",
"Y 	c #F9F9F9",
"Z 	c #E3E3E3",
"` 	c #484848",
" .	c #3B3B3B",
"..	c #D7D7D7",
"+.	c #A8A8A8",
"@.	c #A0A0A0",
"#.	c #D3D3D3",
"$.	c #363636",
"%.	c #F4F4F4",
"&.	c #666666",
"*.	c #181818",
"=.	c #BFBFBF",
"-.	c #8F8F8F",
";.	c #8A8A8A",
">.	c #A3A3A3",
",.	c #B3B3B3",
"'.	c #7B7B7B",
").	c #C7C7C7",
"!.	c #9E9E9E",
"~.	c #F3F3F3",
"{.	c #6F6F6F",
"].	c #EAEAEA",
"^.	c #101010",
"/.	c #646464",
"(.	c #EDEDED",
"_.	c #808080",
":.	c #D1D1D1",
"<.	c #BDBDBD",
"[.	c #191919",
"}.	c #AAAAAA",
"|.	c #AEAEAE",
"1.	c #393939",
"                                                                ",
"                                                                ",
"                                                                ",
"                                                                ",
"                                                                ",
". + . . . . . . . . . . . @ # . $ $ + + + . % & * = - . . . . + ",
"; ; ; ; ; ; ; ; ; ; ; ; ; > , ' ) ! ~ ~ ~ { ] ^ / ( _ ; ; ; ; ; ",
"_ _ : _ _ : : _ : _ _ _ _ ; _ < [ } [ [ [ [ | 1 2 _ _ _ _ _ ; ; ",
"_ : _ _ _ : _ : _ _ _ _ : : _ 3 4 [ 5 6 6 6 7 8 9 _ _ : _ : _ _ ",
"_ _ _ _ _ : : : _ _ : : _ _ : 0 a b [ 6 5 c d 8 9 : : _ _ _ _ ; ",
"_ _ : _ : _ _ : : : : _ : : _ e f g h [ [ i j 8 9 _ _ : _ : _ _ ",
"_ _ _ _ : _ : _ : : : _ : _ _ 3 k l m n 0 i o ^ 9 _ _ : _ _ _ _ ",
"_ _ _ _ _ : _ _ _ _ : : _ > % m p q r q 0 2 s t u ; _ _ _ _ _ _ ",
"_ : _ _ _ _ : : _ _ : _ ; v 5 [ [ [ [ [ [ w x y z A _ _ _ _ _ _ ",
"; ; _ ; _ _ _ ; _ ; ; ; x B } | | | | | } C 9 D E F ; _ _ ; _ ; ",
"_ _ _ _ _ _ _ : _ ; _ 2 G [ } 6 | | | 6 H I F [ = ; _ _ ; : _ ; ",
"_ _ : _ : _ _ _ : : J q | | | | | | | [ K 2 L M N _ _ _ _ : _ _ ",
"_ : : _ : : : : _ _ _ O [ [ P Q R | 6 S 9 ! ' _ _ : : _ _ : : _ ",
"_ _ _ _ _ : : _ _ T U V V ] W X Y 6 Z N ` [ . _ _ _ _ : ; _ ; ; ",
"_ _ _ _ _ _ _ _ _  ...+.] ! @.#.Y [ $.u %.&.; _ ; _ _ _ _ _ _ _ ",
"_ _ _ _ _ _ _ > *./ =.-.;.>.,.8 6 '.9 ).y x _ _ _ _ _ _ _ _ ; _ ",
"; _ _ _ _ _ : 2 '.!.X ~.[ [ } } B x {.].^.; _ _ ; ; _ _ _ ; _ _ ",
"_ : _ _ _ _ T /.[ [ 6 | | | | R u < [ 3 _ : : _ _ _ _ _ _ _ _ _ ",
"_ _ ; _ _ _ F | 6 | | | | | | 1 ,.(._.2 _ _ _ _ _ _ _ _ _ _ _ _ ",
"_ _ _ _ _ 9 :.6 6 | | | | | 6 | | <.9 _ _ : _ _ _ : _ : ; _ _ _ ",
"_ : : _ 2 j [ 6 | | | | | | | } z [._ : _ _ : : : _ _ : _ : _ _ ",
"; _ _ ; - 4 }.4 4 4 4 4 4 4 }.|.1._ _ _ _ _ _ _ _ _ _ _ _ _ _ ; ",
"                                                                ",
"                                                                ",
"                                                                ",
"                                                                ",
"                                                                "};
