/* XPM */
static char *ether_32_xpm[] = {
/* columns rows colors chars-per-pixel */
"32 32 256 2",
"   c #00060D",
".  c #070500",
"X  c #140000",
"o  c #1B0201",
"O  c #1C0B0C",
"+  c #160A06",
"@  c #16130D",
"#  c #030D14",
"$  c #000A1D",
"%  c #131A1C",
"&  c #220402",
"*  c #2B0301",
"=  c #2C0C0B",
"-  c #260A09",
";  c #3D0302",
":  c #360A06",
">  c #2E1208",
",  c #35120E",
"<  c #39100E",
"1  c #270E10",
"2  c #271815",
"3  c #361B17",
"4  c #391816",
"5  c #1B200A",
"6  c #2B251C",
"7  c #35231D",
"8  c #001428",
"9  c #051527",
"0  c #001A35",
"q  c #111F3C",
"w  c #221A25",
"e  c #062328",
"r  c #082937",
"t  c #182A33",
"y  c #1B313C",
"u  c #1F3F34",
"i  c #1C2426",
"p  c #3A2C26",
"a  c #3A362B",
"s  c #383A37",
"d  c #262F27",
"f  c #490A0C",
"g  c #420F0B",
"h  c #450D10",
"j  c #481817",
"k  c #581917",
"l  c #4C0F0C",
"z  c #691719",
"x  c #761115",
"c  c #50221D",
"v  c #482B1D",
"b  c #61201C",
"n  c #73241D",
"m  c #4B1D22",
"M  c #771C2B",
"N  c #4E2129",
"B  c #47282D",
"V  c #502A22",
"C  c #542827",
"Z  c #45302D",
"A  c #54312B",
"S  c #473833",
"D  c #573737",
"F  c #5E2931",
"G  c #64242A",
"H  c #712927",
"J  c #643C36",
"K  c #3C4525",
"L  c #3F443A",
"P  c #5C4D00",
"I  c #6A5D00",
"U  c #675410",
"Y  c #6A6100",
"T  c #7D6F0E",
"R  c #5A5623",
"E  c #4F443E",
"W  c #57523F",
"Q  c #6A4F3E",
"!  c #765E2E",
"~  c #6D6732",
"^  c #132C46",
"/  c #052C55",
"(  c #0B345C",
")  c #13334F",
"_  c #2A394D",
"`  c #333E74",
"'  c #141556",
"]  c #623F45",
"[  c #344B58",
"{  c #395659",
"}  c #2A4654",
"|  c #1D536B",
" . c #3B4A68",
".. c #285564",
"X. c #284D6F",
"o. c #306577",
"O. c #464844",
"+. c #5B4441",
"@. c #554A4B",
"#. c #44544B",
"$. c #58564C",
"%. c #404950",
"&. c #46575A",
"*. c #545856",
"=. c #654A47",
"-. c #64544E",
";. c #665855",
":. c #735351",
">. c #57604E",
",. c #696B5C",
"<. c #77675A",
"1. c #6B6447",
"2. c #4C5565",
"3. c #425873",
"4. c #49426B",
"5. c #44646C",
"6. c #486168",
"7. c #4E6470",
"8. c #476C74",
"9. c #556876",
"0. c #5C6962",
"q. c #68696D",
"w. c #716A65",
"e. c #786868",
"r. c #666A73",
"t. c #657578",
"y. c #787877",
"u. c #7A7562",
"i. c #827703",
"p. c #847112",
"a. c #855C60",
"s. c #8F746B",
"d. c #867876",
"f. c #8B706F",
"g. c #7A8A7A",
"h. c #6A8677",
"j. c #908D00",
"k. c #9E8E14",
"l. c #9B9A01",
"z. c #A09C16",
"x. c #989220",
"c. c #989736",
"v. c #908325",
"b. c #A2942C",
"n. c #ACA832",
"m. c #BEBE3A",
"M. c #AEAA15",
"N. c #C6B732",
"B. c #C5C318",
"V. c #C5D126",
"C. c #CDD22C",
"Z. c #F7DF3F",
"A. c #DAE235",
"S. c #908F4E",
"D. c #9FA25F",
"F. c #BAAC53",
"G. c #90876A",
"H. c #8A8577",
"J. c #829B7E",
"K. c #B78B7E",
"L. c #AFB56D",
"P. c #A5A96C",
"I. c #C2BF60",
"U. c #BBC05C",
"Y. c #CFD95E",
"T. c #C6C256",
"R. c #FBFB4F",
"E. c #CFC870",
"W. c #FEFF68",
"Q. c #EDF36E",
"!. c #0C3F80",
"~. c #245981",
"^. c #2C688C",
"/. c #5C7B8F",
"(. c #677C85",
"). c #757983",
"_. c #6F7F96",
"`. c #7F7E90",
"'. c #5D8084",
"]. c #74868B",
"[. c #7E8285",
"{. c #72878C",
"}. c #8E8C88",
"|. c #8D9E8C",
" X c #969589",
".X c #8A8C97",
"XX c #859196",
"oX c #9A9693",
"OX c #948F89",
"+X c #AC9588",
"@X c #B09193",
"#X c #81A081",
"$X c #9CA499",
"%X c #A8B28A",
"&X c #A6A79B",
"*X c #B3A999",
"=X c #B7B29E",
"-X c #889EA2",
";X c #989BA2",
":X c #A79DA5",
">X c #86A6A4",
",X c #98A8AB",
"<X c #9CA9B1",
"1X c #ABACA5",
"2X c #B8AEAC",
"3X c #BEAFB4",
"4X c #B7BAB8",
"5X c #ADADB3",
"6X c #C5BAB8",
"7X c #BDC0B5",
"8X c #C2CE9C",
"9X c #C4CF92",
"0X c #D2E896",
"qX c #FDFF90",
"wX c #F1F48B",
"eX c #C2CAAA",
"rX c #C3C6B7",
"tX c #D4CFA7",
"yX c #B4BAC3",
"uX c #BBC6CC",
"iX c #C7C7C5",
"pX c #CDCAD6",
"aX c #DBDDDF",
"sX c #D3D1CE",
"dX c #E5DECE",
"fX c #E7DAD7",
"gX c #D5E7D7",
"hX c #CFE5D8",
"jX c #E4E6DD",
"kX c #F8F4D7",
"lX c #DFDEEE",
"zX c #E6E7E1",
"xX c #ECE5E3",
"cX c #EDEBE4",
"vX c #ECECEC",
"bX c #E7E8ED",
"nX c #F3EDEF",
"mX c #F3EEE5",
"MX c #EFF3ED",
"NX c #E5F7E7",
"BX c #F4F4EC",
"VX c #FCF3EC",
"CX c #FDFEEC",
"ZX c #F7F9E9",
"AX c #EFEDF1",
"SX c #F4EBF7",
"DX c #ECF4F3",
"FX c #EAF9F9",
"GX c #F4F5F4",
"HX c #FAF6F3",
"JX c #F3FAF5",
"KX c #FCFCF5",
"LX c #F5F5FA",
"PX c #FCF5FC",
"IX c #F4FDFC",
"UX c #FEFDFD",
/* pixels */
"KXUXUXUXUXUXKXKXPXUXUXUXUXKXUXUXKXUXIXUXUXUXDXIXIXUXUXUXIXUXcXUX",
"UXUXUXUXUXUXUXKXUXUXKXUXPXKXKXUXPXUXIXDXUXUXUXGXKXJXUXLXUXUXUXnX",
"UXUXUXUXUXUXUXUXUXUXKXUXUXUXUXUXIXUXIXKX@X@X6XxXUXKXUXUXvXUXKXKX",
"UXUXUXUXUXUXUXUXUXKXKXUXUXUXKXUXUXUXDXmX<.] 4 2 s jXKXLXUXUXUXHX",
"UXKXUXKXUXUXUXUXKXKXKXKXUXKXUXUXUXJXKXZX+X< = o 7 @ GXUXUXUXIXUX",
"UXJXLXKXUXUXUXUXCXUXKXKXHXUXUXUXjX4X&X*Xs.< 1 + o ;.y.GXUXIXUXUX",
"UXKXKXUXUXUXUXKXCXKXKXBXHXUXUXvX&XdX*X+Xv , - O X S S UXUXUXGXUX",
"UXUXUXUXUXUXUXKXjXZXZXcXKXUXAXiXdX=X1.G.Q & 2 *.3 p oXLXDXUXUXUX",
"IXUXKXUXVXKXcXUXFXuXFXCXkXCXJXFXf.e.,.+.D * + O.N D PXPXUXUXDXIX",
"IXUXUXKXKXUXKXGX&Xt.5.8.'.uXUXLX3X}.OXs.j & - 6 a KXUXUXUXUXJXUX",
"UXGXUXKXKXUXIXIX7Xu o.^.X. .t.sXUXvXy.3 N C : * hXUXBXPXUXnXUXJX",
"UXGXUXUXUXFXFXpXg.e r / ( ) (.XXIX4X$.o * k G k $.cXUXvXGXUXUXUX",
"UXUXUXUXUXyX].9.6.e ^ 3.9.[ ..| d @ X , c l ; c G :.H.NXIXIXJXPX",
"UXUXUXUXbX{.^ e 0 8 2._ @.y.[ ..w.7 * c j : < l M j s.$.hXhXUXUX",
"UXUXPXLXuX9.r 8 8 ^ ^ }.*X+X<.@.> A k g A > o 4 f j k s.S HXUXIX",
"UXUXUXUX,X9.^ $ # [ 5.&.-.K.H n J k k z : X o = < N l f @X+.UXFX",
"UXUXZXCX4..X' # e } (.[ _ L @ $ @ 2 7 -.:Xw O X @ 3 k x z u.rXUX",
"DXUXUXCX).P.r.a #._.,X|.yX2X,.9 # $.d.UXPXq.1 - O O g x k <.1XUX",
"JXUXUXCXG.Y.9XD.H..X|.g. X2X<X .# %.}.HXPXPX1 o o + o l b J 4XUX",
"KXUXSXZXR C.n.S.x.T.Q.W.qXwX9X&.0 7.).UXUXiXO = X 6 . : H m cXUX",
"CXKXIXUXR C.Y ! b.F.m.C.T.D.%X3./  .].KXKXw.o C Z E   < G a.UXPX",
"KXBXUXUX1.A.I ! k.T M.B.i.v.8X9./ _ XXZXUXw.o 4 d.L . m F fXKXPX",
"UXCXUXnXW V.Y U T P x.N.p.S.eX .( ..y.CXZXp + , 6X% X m +.KXIXUX",
"LXKXCXUX,.W.n.c.z.n.l.j.N.E.L.0./ } { W a 6 , A zX@ & N ;.FXIXPX",
"KXUXUXUXp tXE.c.x.N.Z.R.R.wX%Xq.r [ *.O.7 S Z -.jXX & V =.HXUXUX",
"rX1X2XsXy.,.K W S.U.Q.W.qX0X|.{ 8 y s a 7 X S e.$Xa X V D VXUXLX",
"$.L 6 i *.t.t   t { h.}.h.o.X.!.y ].5X}. X$.@.2 L E - A -.KXUXUX",
"rX}.>.[ _ r.[ r r 5.>X>X(...| ~.2.0.lX2X6XoXO.s *.d.d.v ;.UXPXLX",
"UXxXfXUXfXgX.X2.t.].-X,X{.7.[ } ;XUXUXvXBXzXUXiXoXd.6XsXUXUXnXUX",
"SXKXUXKXKXKXUXUXpX5X`.)..XyXlXUXUXGXUXUXUXUXvXUXUXPXPXUXUXJXUXHX",
"PXUXvXvXUXUXKXUXKXCXKXCXKXCXCXVXUXUXUXAXUXUXUXUXIXUXHXUXIXDXUXPX",
"GXUXUXUXLXPXUXUXUXUXUXUXUXUXUXUXKXUXUXUXUXLXUXUXUXUXUXAXIXIXUXUX"
};
