/* XPM */
static char *help_32_xpm[] = {
/* columns rows colors chars-per-pixel */
"32 32 121 2",
"   c #49190A",
".  c #501A0A",
"X  c #742C12",
"o  c #7D2F13",
"O  c #783D28",
"+  c #656565",
"@  c #6A6A6A",
"#  c gray45",
"$  c #797D77",
"%  c #832D0F",
"&  c #872F10",
"*  c #AF3B0D",
"=  c #BE3F03",
"-  c #B43D0B",
";  c #A43914",
":  c #AB3D13",
">  c #A23A19",
",  c #AA3F19",
"<  c #BE4106",
"1  c #BB420B",
"2  c #AD4017",
"3  c #AC411A",
"4  c #BA4612",
"5  c #BD4A16",
"6  c #B3461B",
"7  c #B5491D",
"8  c #B94B1A",
"9  c #8B442D",
"0  c #AC4520",
"q  c #AE4923",
"w  c #A34829",
"e  c #AB4D2D",
"r  c #B44C22",
"t  c #B55026",
"y  c #BB5325",
"u  c #BA5428",
"i  c #AE5C3C",
"p  c #B15632",
"a  c #BA5930",
"s  c #C14407",
"d  c #C74806",
"f  c #CA4C07",
"g  c #C2460A",
"h  c #C5490B",
"j  c #CA4C09",
"k  c #CE510C",
"l  c #D2540C",
"z  c #D6590E",
"x  c #D85C0F",
"c  c #C04A12",
"v  c #CF5A17",
"b  c #C7571C",
"n  c #CB5A1C",
"m  c #D35B14",
"M  c #DA5E10",
"N  c #DC6112",
"B  c #E36713",
"V  c #E46916",
"C  c #E56D1B",
"Z  c #C15624",
"A  c #C15826",
"S  c #C65D29",
"D  c #CA642E",
"F  c #D56421",
"G  c #D86827",
"H  c #DC6F2D",
"J  c #C1653C",
"K  c #DB7331",
"L  c #E77424",
"P  c #E97A2D",
"I  c #E67E37",
"U  c #EA7E33",
"Y  c #E67F3C",
"T  c #A65D44",
"R  c #AB6145",
"E  c #A7654B",
"W  c #B36847",
"Q  c #B46B4C",
"!  c #B46D54",
"~  c #AC745F",
"^  c #A37666",
"/  c #AA7560",
"(  c #A57A6C",
")  c #AB7C69",
"_  c #A07F75",
"`  c #C37C5C",
"'  c #E7813E",
"]  c #EB8239",
"[  c #9F8278",
"{  c #AE816F",
"}  c #EE8A43",
"|  c #EE8E4A",
" . c #EE914B",
".. c #F09351",
"X. c #F19953",
"o. c #9F8982",
"O. c #9D9C9C",
"+. c #A38C84",
"@. c #AB8D82",
"#. c #AD9187",
"$. c #AE9489",
"%. c #B0988F",
"&. c #A29794",
"*. c #B29B91",
"=. c #AAA19D",
"-. c #A5A5A5",
";. c #ADA5A2",
":. c #ABABAB",
">. c #B2AFAE",
",. c #B2B2B2",
"<. c #BBBBBB",
"1. c #C39684",
"2. c #C1A59B",
"3. c #C3C3C3",
"4. c #CBCBCB",
"5. c #D4D4D4",
"6. c #DCDCDC",
"7. c #E2E2E2",
"8. c #EDEDED",
"9. c #F1F1F1",
"0. c None",
/* pixels */
"0.0.0.0.0.0.0.0.0.0.0.0.8 7 7 8 8 7 7 8 0.0.0.0.0.0.0.0.0.0.0.0.",
"0.0.0.0.0.# # # # # 0.8 k k l m m l k k r $ $ # # # # 0.0.0.0.0.",
"0.0.0.0.# 0.0.0.0.0.*.y I  .X.X.X.X. .I r :.0.0.0.0.0.# 0.0.0.0.",
"0.0.0.# 0.0.0.0.,.<.>.y X.X.X.X.X.X.X.| a :.,.,.0.0.0.0.# 0.0.0.",
"0.0.# 0.0.0.0.,.4.4.,.a I L C B B C L K W :.4.4.,.0.0.0.0.# 0.0.",
"0.0.$ 0.0.,.<.5.5.7.4.Q m B B B B B B n ) 4.6.5.4.,.0.0.0.$ 0.0.",
"0.0.$ 0.0.<.5.6.9.9.7.{ b l f d d f l Z #.7.9.8.5.4.,.0.0.$ 0.0.",
"0.0.$ 0.,.4.6.9.9.8.5.%.8 = = = = = = 7 ;.5.9.9.9.5.4.:.0.$ 0.0.",
"0.0.$ ,.4.5.9.9.8.5.4.:.7 1 4 8 5 4 1 r :.4.5.8.9.8.5.3.:.$ 0.0.",
"0.0.$ <.5.8.9.8.5.5.<.:.r 7 7 7 7 7 7 r :.3.5.5.8.9.7.5.,.$ 0.0.",
"0.0.$ 4.6.9.9.5.5.<.:.0.0.0.0.0.0.0.0.0.0.:.3.5.6.9.8.5.3.$ 0.0.",
"0.8 8 u u J ` 1.2.;.0.0.0.0.0.0.0.0.0.0.0.0.$.1.` J u u A 5 5 7 ",
"7 c k V ..| F 4 8 7 0.0.0.0.0.0.0.0.0.0.0.0.7 4 1 H ..} B j h 7 ",
"7 h z L | | x = < 7 0.0.0.0.0.0.0.0.0.0.0.0.7 < = m | | V k j 6 ",
"7 h x L } ] l = 1 7 0.0.0.0.0.0.0.0.0.0.0.0.7 1 = k } } C l h 7 ",
"6 h M L ] P k = 4 7 0.0.0.0.0.0.0.0.0.0.0.0.7 1 = f U ] C z h 7 ",
"7 h M L U P l = 4 7 0.0.0.0.0.0.0.0.0.0.0.0.7 1 = f P P C l h 6 ",
"6 g z C P L l = 1 7 0.0.0.0.0.0.0.0.0.0.0.0.7 < = l L L V l h 6 ",
"6 1 l V L L N = 1 6 0.0.0.0.0.0.0.0.0.0.0.0.3 1 = M C C B j g 6 ",
"0.4 j m n A t r p E 0.0.0.0.0.0.0.0.0.0.0.0.~ i q r u b m g g 3 ",
"0.3 q i / @.=.-.-.O.0.0.0.0.0.0.0.0.0.0.0.0.:.-.O.-.+.^ R q , 0.",
"0.0.$ -.3.5.6.4.3.<.:.0.0.0.0.0.0.0.0.0.0.:.3.3.5.5.-.O.O.$ 0.0.",
"0.0.$ -.4.5.7.7.5.4.3.-.0 2 2 2 2 , , 3 :.3.4.5.7.7.4.3.:.$ 0.0.",
"0.0.$ :.<.4.6.7.7.5.3.-.3 = = - - = = 2 &.3.5.7.7.5.4.,.0.$ 0.0.",
"0.0.$ 0.-.3.4.6.6.6.:.o.r ' H G G H Y y [ 4.6.6.5.4.<.:.0.$ 0.0.",
"0.0.$ 0.0.-.3.4.5.5.:.( S | | | | | | D ^ 5.6.5.4.<.-.0.0.$ 0.0.",
"0.0.$ 0.0.0.-.<.4.3.,.! v L P U U P L m T 4.4.4.<.-.0.0.0.$ 0.0.",
"0.0.# 0.0.0.0.-.,.<.:.e N B B B B B B N w 3.3.:.-.0.0.0.0.# 0.0.",
"0.0.0.# 0.0.0.0.0.-.O.> N B B B B B B M > :.-.0.0.0.0.0.# 0.0.0.",
"0.0.0.0.# 0.0.0.0.0._ : < s h j j h s < ; 0.0.0.0.0.0.# 0.0.0.0.",
"0.0.0.0.0.@ @ @ @ + 0.; : * - - - - - : > $ $ @ @ @ @ 0.0.0.0.0.",
"0.0.0.0.0.0.0.0.0.0.0.0.  O X % & o 9 . 0.0.0.0.0.0.0.0.0.0.0.0."
};
