/* XPM */
static char * vera_small_xpm[] = {
"16 16 71 1",
" 	c None",
".	c #252525",
"+	c #242424",
"@	c #353535",
"#	c #101010",
"$	c #191919",
"%	c #0F0F0F",
"&	c #3E3E3E",
"*	c #222222",
"=	c #060606",
"-	c #040404",
";	c #515151",
">	c #E3E3E3",
",	c #B8B8B8",
"'	c #E1E1E1",
")	c #373737",
"!	c #050505",
"~	c #080808",
"{	c #090909",
"]	c #1B1B1B",
"^	c #B0B0B0",
"/	c #FFFFFF",
"(	c #EAEAEA",
"_	c #BEBEBE",
":	c #000000",
"<	c #181818",
"[	c #CDCDCD",
"}	c #A4A4A4",
"|	c #A7A7A7",
"1	c #D0D0D0",
"2	c #A2A2A2",
"3	c #B2B2B2",
"4	c #999999",
"5	c #6F6F6F",
"6	c #626262",
"7	c #505050",
"8	c #070707",
"9	c #020202",
"0	c #949494",
"a	c #FEFEFE",
"b	c #BBBBBB",
"c	c #5A5A5A",
"d	c #5D5D5D",
"e	c #464646",
"f	c #E4E4E4",
"g	c #FBFBFB",
"h	c #F6F6F6",
"i	c #212121",
"j	c #A6A6A6",
"k	c #0A0A0A",
"l	c #A9A9A9",
"m	c #989898",
"n	c #ADADAD",
"o	c #3A3A3A",
"p	c #BFBFBF",
"q	c #030303",
"r	c #010101",
"s	c #7F7F7F",
"t	c #BABABA",
"u	c #E2E2E2",
"v	c #919191",
"w	c #909090",
"x	c #272727",
"y	c #FDFDFD",
"z	c #F8F8F8",
"A	c #6E6E6E",
"B	c #737373",
"C	c #1D1D1D",
"D	c #6C6C6C",
"E	c #A5A5A5",
"F	c #131313",
"                ",
"                ",
"......+@#$$%&*.+",
"======-;>,,')=!=",
"~{{{~{{]^/(_:{~~",
"~{{{{{~<[}|1:{{{",
"~{{{{{-2345678~~",
"~~~~~90/aabcd8~~",
"{{{{~e/fghij9~{{",
"~~{{klmn/opq~{~~",
"~~~rst[uvwx~8{~8",
"~~~d//yzAB=~~{~~",
"~~C/////_:{~{{~{",
"~!DEjjjnF~{~{~8~",
"                ",
"                "};
